<svg width="411" height="322" viewBox="0 0 411 322" fill="none" xmlns="http://www.w3.org/2000/svg">
<path d="M409.884 183.11C409.884 183.11 409.835 181.554 408.141 181.369C406.798 181.223 405.806 182.502 405.485 183.25C402.854 189.375 397.883 190.504 396.088 188.782C393.165 185.979 388.463 185.176 388.463 185.176C381.166 182.919 374.685 183.054 369.579 183.187C365.601 183.292 362.458 183.396 360.413 182.371C358.505 181.414 357.76 179.869 357.55 178.329C359.574 174.989 360.997 171.015 361.581 167.383C363.171 157.505 353.868 149.149 344.019 149.002C334.171 148.855 326.066 156.846 325.917 166.851C325.77 176.652 329.815 179.175 342.673 184.876C342.673 186.606 341.405 187.71 340.876 188.874C326.044 221.493 365.674 222.958 365.674 222.958C418.09 225.51 409.884 183.11 409.884 183.11Z" fill="#F1BE45"/>
<path d="M344.019 149.002C343.953 149.001 343.886 149 343.819 149C343.886 149 343.952 149.001 344.019 149.002Z" fill="#FDDE8C"/>
<path d="M364.124 184.468C363.178 184.468 362.23 184.386 361.292 184.219C359.258 183.857 356.498 183.243 356.013 180.877C355.912 180.387 355.904 179.883 355.948 179.378C356.122 179.332 356.329 179.298 356.557 179.298C356.947 179.298 357.4 179.398 357.858 179.714L357.778 179.356C358.151 180.531 358.932 181.628 360.413 182.371C361.837 183.084 363.793 183.251 366.192 183.251C367.51 183.251 368.962 183.201 370.532 183.164C370.069 183.356 369.601 183.536 369.12 183.689C367.5 184.205 365.814 184.468 364.124 184.468ZM355.958 179.266C356.042 178.454 356.252 177.639 356.425 176.873C356.738 175.491 357.126 174.128 357.419 172.741C357.722 171.303 357.883 169.859 357.893 168.411C358.244 168.358 358.573 168.146 358.74 167.728C359.766 165.174 359.184 162.262 357.295 160.27C357.066 160.029 356.799 159.928 356.54 159.928C356.359 159.928 356.181 159.977 356.021 160.062C355.653 159.368 355.223 158.706 354.726 158.087C353.059 156.011 350.717 154.358 348.293 153.287C345.609 152.101 342.773 151.665 339.906 151.665C337.794 151.665 335.664 151.902 333.569 152.251C336.46 150.203 339.972 149 343.752 149C343.775 149 343.797 149 343.819 149C343.886 149 343.953 149.001 344.019 149.002C353.122 149.138 361.759 156.287 361.759 165.169C361.759 165.897 361.701 166.636 361.581 167.383C360.997 171.015 359.574 174.989 357.55 178.329L355.958 179.266Z" fill="#FCD067"/>
<path d="M353.3 219.08C348.462 216.662 343.846 212.945 340.609 208.601C339.259 206.788 338.232 204.828 337.568 202.773C338.205 221.94 365.674 222.958 365.674 222.958C365.923 222.97 366.167 222.978 366.413 222.989C361.858 222.35 357.421 221.139 353.3 219.08Z" fill="#FCD472"/>
<path d="M409.884 183.11C409.884 183.11 409.835 181.554 408.141 181.369C407.396 181.288 406.759 181.646 406.285 182.108C407.516 184.114 408.333 186.34 408.459 188.756C408.7 193.376 407.885 198.248 406.148 202.533C403.84 208.228 400.023 213.313 395.387 217.417C414.39 206.398 409.884 183.11 409.884 183.11Z" fill="#FCD472"/>
<path d="M326.629 162.62C326.629 162.62 324.202 165.08 321.704 165.383C320.797 165.494 319.895 165.32 319.127 165.146C317.778 164.841 316.842 164.536 317.022 165.768C317.305 167.701 318.218 169.19 319.769 169.667C319.769 169.667 318.618 170.217 318.295 171.007C318.295 171.007 320.681 171.269 327.09 173.521C327.09 173.521 331.39 170.862 329.86 168.91C328.331 166.958 325.97 164.993 327.043 162.74C328.116 160.486 326.629 162.62 326.629 162.62Z" fill="#F57853"/>
<path d="M326.806 164.321C326.727 163.818 326.782 163.303 327.028 162.772C326.783 163.302 326.731 163.816 326.809 164.318C326.808 164.319 326.807 164.32 326.806 164.321ZM327.028 162.771C327.029 162.769 327.03 162.767 327.031 162.765C327.03 162.767 327.029 162.769 327.028 162.771ZM327.032 162.762C327.033 162.761 327.033 162.76 327.034 162.759C327.033 162.76 327.033 162.761 327.032 162.762ZM327.036 162.754C327.037 162.753 327.037 162.753 327.037 162.753C327.037 162.753 327.037 162.753 327.036 162.754Z" fill="#F79463"/>
<path d="M321.749 166.164C321.241 166.164 320.713 166.103 320.162 165.969C319.212 165.736 318.315 165.357 317.461 164.886C317.515 164.879 317.572 164.875 317.633 164.875C318.008 164.875 318.526 165.011 319.127 165.146C319.728 165.282 320.411 165.418 321.114 165.418C321.309 165.418 321.507 165.408 321.704 165.384C324.202 165.081 326.629 162.62 326.629 162.62C326.629 162.62 327.266 161.706 327.405 161.706C327.422 161.706 327.432 161.72 327.432 161.751C327.432 161.853 327.327 162.142 327.043 162.74C327.041 162.744 327.039 162.749 327.037 162.753C327.037 162.753 327.037 162.753 327.036 162.754C327.036 162.755 327.035 162.757 327.034 162.759C327.033 162.76 327.033 162.761 327.032 162.762C327.032 162.763 327.031 162.764 327.031 162.765C327.03 162.767 327.029 162.769 327.028 162.771C327.028 162.771 327.028 162.771 327.028 162.772C326.782 163.303 326.727 163.818 326.806 164.321C325.224 165.342 323.615 166.164 321.749 166.164Z" fill="#F68766"/>
<path d="M318.297 171.002C318.297 171.001 318.297 171 318.298 171C318.297 171 318.297 171.001 318.297 171.002ZM318.299 170.996C318.299 170.996 318.299 170.996 318.3 170.995C318.299 170.996 318.299 170.996 318.299 170.996Z" fill="#F89D81"/>
<path d="M327.09 173.521C326.997 173.488 326.905 173.456 326.813 173.424C326.905 173.456 326.997 173.488 327.09 173.521ZM327.091 173.521H327.091C327.091 173.521 327.091 173.521 327.091 173.521Z" fill="#F79463"/>
<path d="M327.09 173.521C326.997 173.488 326.905 173.456 326.813 173.424C320.612 171.262 318.295 171.007 318.295 171.007C318.295 171.005 318.296 171.003 318.297 171.002C318.297 171.001 318.297 171 318.298 171C318.298 170.999 318.299 170.997 318.299 170.996C318.299 170.996 318.299 170.996 318.3 170.995C318.348 170.882 318.414 170.774 318.49 170.671C319.771 170.839 321.028 171.148 322.31 171.324C323.779 171.526 325.278 171.572 326.757 171.645C327.579 171.686 328.401 171.723 329.223 171.762C328.328 172.748 327.129 173.497 327.091 173.521H327.091C327.09 173.521 327.09 173.521 327.09 173.521C327.09 173.521 327.09 173.521 327.09 173.521H327.09H327.09Z" fill="#F68766"/>
<path d="M319.769 169.667C319.769 169.667 318.618 170.217 318.295 171.007C318.295 171.007 318.375 171.016 318.545 171.044C320.733 170.205 323.242 170.016 325.5 169.707C325.588 169.695 325.675 169.687 325.763 169.675C322.263 169.545 318.483 168.243 317.009 165.359C316.996 165.472 316.998 165.605 317.022 165.768C317.305 167.701 318.218 169.19 319.769 169.667Z" fill="#F3673C"/>
<path d="M336.875 162.909C336.845 164.941 335.807 166.574 334.556 166.555C333.305 166.536 332.316 164.874 332.347 162.842C332.377 160.809 333.415 159.177 334.666 159.196C335.917 159.214 336.906 160.877 336.875 162.909Z" fill="#331311"/>
<path d="M334.483 161.93C334.472 162.737 334.166 163.388 333.801 163.382C333.436 163.377 333.151 162.718 333.163 161.91C333.175 161.102 333.48 160.452 333.845 160.457C334.21 160.463 334.496 161.122 334.483 161.93Z" fill="white"/>
<path d="M337.293 182.309C337.293 182.309 343.904 185.168 353.961 180.01C353.961 180.01 346.333 184.09 342.673 184.875C342.673 184.875 339.329 183.471 337.293 182.309Z" fill="#E8AD29"/>
<path d="M349.899 203.919C349.899 203.919 352.563 216.246 371.431 215.565C387.624 214.981 393.411 207.08 396.111 201.2C396.66 200.005 396.426 198.247 396.426 198.247L391.891 204.169L373.474 211.443C373.474 211.443 356.521 209.208 356.055 208.824C355.589 208.44 349.899 203.919 349.899 203.919Z" fill="#E19D14"/>
<path d="M382.095 196.567C378.566 196.465 377.141 196.54 374.14 195.269C369.71 193.391 366.105 190.652 361.296 190.475C356.488 190.299 351.245 192.721 349.649 197.261C348.442 200.694 349.587 204.657 351.933 207.439C354.28 210.221 357.665 211.95 361.145 213.012C372.429 216.454 385.626 212.934 393.421 204.079C394.891 202.41 396.218 200.462 396.426 198.247C393.85 200.332 390.872 201.919 387.705 202.896C389.332 201.201 390.323 198.909 390.443 196.563C388.948 198.127 387.036 199.289 384.959 199.897C386.404 198.584 387.065 195.551 386.574 193.661C384.786 196.513 383.075 196.505 381.989 196.583" fill="#EAB230"/>
<path d="M357.778 179.356C357.671 179.018 357.597 178.674 357.55 178.329L357.778 179.356Z" fill="#F8DD97"/>
<path d="M355.404 179.593L355.958 179.266C355.955 179.304 355.951 179.341 355.948 179.378C355.665 179.452 355.468 179.556 355.404 179.593Z" fill="#F1BE45"/>
<path d="M357.858 179.714C357.4 179.398 356.947 179.298 356.557 179.298C356.329 179.298 356.122 179.332 355.948 179.378C355.951 179.341 355.955 179.304 355.958 179.266L357.55 178.329C357.597 178.673 357.671 179.018 357.778 179.356L357.858 179.714Z" fill="#F6C756"/>
<path d="M355.382 179.606C355.382 179.606 355.39 179.601 355.404 179.593L355.382 179.606Z" fill="#F1BE45"/>
<path d="M357.715 168.424C357.032 168.424 356.355 167.858 356.679 167.05C357.432 165.175 357.081 163.199 355.686 161.728C355.112 161.123 355.451 160.365 356.021 160.062C356.808 161.542 357.315 163.165 357.6 164.823C357.805 166.02 357.901 167.216 357.893 168.411C357.834 168.42 357.775 168.424 357.715 168.424Z" fill="#FCE09F"/>
<path d="M357.893 168.411C357.901 167.217 357.805 166.02 357.6 164.823C357.315 163.165 356.808 161.542 356.021 160.062C356.181 159.977 356.359 159.928 356.54 159.928C356.799 159.928 357.066 160.029 357.295 160.271C359.184 162.262 359.766 165.175 358.74 167.729C358.573 168.146 358.244 168.359 357.893 168.411Z" fill="#FDE5A9"/>
<path d="M405.653 198.174C404.987 198.174 404.327 197.581 404.71 196.825C405.812 194.65 406.2 192.367 405.842 189.952C405.737 189.242 406.298 188.843 406.854 188.843C407.304 188.843 407.75 189.105 407.835 189.677C408.241 192.418 407.817 195.135 406.563 197.609C406.361 198.008 406.006 198.175 405.653 198.174Z" fill="#FCE09F"/>
<path d="M399.884 281.11C399.884 281.11 399.835 279.554 398.141 279.369C396.798 279.223 395.806 280.502 395.485 281.25C392.854 287.375 387.883 288.504 386.088 286.782C383.165 283.979 378.463 283.176 378.463 283.176C371.166 280.919 364.685 281.054 359.579 281.187C355.601 281.292 352.458 281.396 350.413 280.371C348.505 279.414 347.76 277.869 347.55 276.329C349.574 272.989 350.997 269.015 351.581 265.383C353.171 255.505 343.868 247.149 334.019 247.002C324.171 246.855 316.066 254.846 315.917 264.851C315.77 274.652 319.815 277.175 332.673 282.876C332.673 284.606 331.405 285.71 330.876 286.874C316.044 319.493 355.674 320.958 355.674 320.958C408.09 323.51 399.884 281.11 399.884 281.11Z" fill="#F1BE45"/>
<path d="M334.019 247.002C333.953 247.001 333.886 247 333.819 247C333.886 247 333.952 247.001 334.019 247.002Z" fill="#FDDE8C"/>
<path d="M354.124 282.468C353.178 282.468 352.23 282.386 351.292 282.219C349.258 281.857 346.498 281.243 346.013 278.877C345.912 278.387 345.904 277.883 345.948 277.378C346.122 277.332 346.329 277.298 346.557 277.298C346.947 277.298 347.4 277.398 347.858 277.714L347.778 277.356C348.151 278.531 348.932 279.628 350.413 280.371C351.837 281.084 353.793 281.251 356.192 281.251C357.51 281.251 358.962 281.201 360.532 281.164C360.069 281.356 359.601 281.536 359.12 281.689C357.5 282.205 355.814 282.468 354.124 282.468ZM345.958 277.266C346.042 276.454 346.252 275.639 346.425 274.873C346.738 273.491 347.126 272.128 347.419 270.741C347.722 269.303 347.883 267.859 347.893 266.411C348.244 266.358 348.573 266.146 348.74 265.728C349.766 263.174 349.184 260.262 347.295 258.27C347.066 258.029 346.799 257.928 346.54 257.928C346.359 257.928 346.181 257.977 346.021 258.062C345.653 257.368 345.223 256.706 344.726 256.087C343.059 254.011 340.717 252.358 338.293 251.287C335.609 250.101 332.773 249.665 329.906 249.665C327.794 249.665 325.664 249.902 323.569 250.251C326.46 248.203 329.972 247 333.752 247C333.775 247 333.797 247 333.819 247C333.886 247 333.953 247.001 334.019 247.002C343.122 247.138 351.759 254.287 351.759 263.169C351.759 263.897 351.701 264.636 351.581 265.383C350.997 269.015 349.574 272.989 347.55 276.329L345.958 277.266Z" fill="#FCD067"/>
<path d="M343.3 317.08C338.462 314.662 333.846 310.945 330.609 306.601C329.259 304.788 328.232 302.828 327.568 300.773C328.205 319.94 355.674 320.958 355.674 320.958C355.923 320.97 356.167 320.978 356.413 320.989C351.858 320.35 347.421 319.139 343.3 317.08Z" fill="#FCD472"/>
<path d="M399.884 281.11C399.884 281.11 399.835 279.554 398.141 279.369C397.396 279.288 396.759 279.646 396.285 280.108C397.516 282.114 398.333 284.34 398.459 286.756C398.7 291.376 397.885 296.248 396.148 300.533C393.84 306.228 390.023 311.313 385.387 315.417C404.39 304.398 399.884 281.11 399.884 281.11Z" fill="#FCD472"/>
<path d="M316.629 260.62C316.629 260.62 314.202 263.08 311.704 263.383C310.797 263.494 309.895 263.32 309.127 263.146C307.778 262.841 306.842 262.536 307.022 263.768C307.305 265.701 308.218 267.19 309.769 267.667C309.769 267.667 308.618 268.217 308.295 269.007C308.295 269.007 310.681 269.269 317.09 271.521C317.09 271.521 321.39 268.862 319.86 266.91C318.331 264.958 315.97 262.993 317.043 260.74C318.116 258.486 316.629 260.62 316.629 260.62Z" fill="#F57853"/>
<path d="M316.806 262.321C316.727 261.818 316.782 261.303 317.028 260.772C316.783 261.302 316.731 261.816 316.809 262.318C316.808 262.319 316.807 262.32 316.806 262.321ZM317.028 260.771C317.029 260.769 317.03 260.767 317.031 260.765C317.03 260.767 317.029 260.769 317.028 260.771ZM317.032 260.762C317.033 260.761 317.033 260.76 317.034 260.759C317.033 260.76 317.033 260.761 317.032 260.762ZM317.036 260.754C317.037 260.753 317.037 260.753 317.037 260.753C317.037 260.753 317.037 260.753 317.036 260.754Z" fill="#F79463"/>
<path d="M311.749 264.164C311.241 264.164 310.713 264.103 310.162 263.969C309.212 263.736 308.315 263.357 307.461 262.886C307.515 262.879 307.572 262.875 307.633 262.875C308.008 262.875 308.526 263.011 309.127 263.146C309.728 263.282 310.411 263.418 311.114 263.418C311.309 263.418 311.507 263.408 311.704 263.384C314.202 263.081 316.629 260.62 316.629 260.62C316.629 260.62 317.266 259.706 317.405 259.706C317.422 259.706 317.432 259.72 317.432 259.751C317.432 259.853 317.327 260.142 317.043 260.74C317.041 260.744 317.039 260.749 317.037 260.753C317.037 260.753 317.037 260.753 317.036 260.754C317.036 260.755 317.035 260.757 317.034 260.759C317.033 260.76 317.033 260.761 317.032 260.762C317.032 260.763 317.031 260.764 317.031 260.765C317.03 260.767 317.029 260.769 317.028 260.771C317.028 260.771 317.028 260.771 317.028 260.772C316.782 261.303 316.727 261.818 316.806 262.321C315.224 263.342 313.615 264.164 311.749 264.164Z" fill="#F68766"/>
<path d="M308.297 269.002C308.297 269.001 308.297 269 308.298 269C308.297 269 308.297 269.001 308.297 269.002ZM308.299 268.996C308.299 268.996 308.299 268.996 308.3 268.995C308.299 268.996 308.299 268.996 308.299 268.996Z" fill="#F89D81"/>
<path d="M317.09 271.521C316.997 271.488 316.905 271.456 316.813 271.424C316.905 271.456 316.997 271.488 317.09 271.521ZM317.091 271.521H317.091C317.091 271.521 317.091 271.521 317.091 271.521Z" fill="#F79463"/>
<path d="M317.09 271.521C316.997 271.488 316.905 271.456 316.813 271.424C310.612 269.262 308.295 269.007 308.295 269.007C308.295 269.005 308.296 269.003 308.297 269.002C308.297 269.001 308.297 269 308.298 269C308.298 268.999 308.299 268.997 308.299 268.996C308.299 268.996 308.299 268.996 308.3 268.995C308.348 268.882 308.414 268.774 308.49 268.671C309.771 268.839 311.028 269.148 312.31 269.324C313.779 269.526 315.278 269.572 316.757 269.645C317.579 269.686 318.401 269.723 319.223 269.762C318.328 270.748 317.129 271.497 317.091 271.521H317.091C317.09 271.521 317.09 271.521 317.09 271.521C317.09 271.521 317.09 271.521 317.09 271.521H317.09H317.09Z" fill="#F68766"/>
<path d="M309.769 267.667C309.769 267.667 308.618 268.217 308.295 269.007C308.295 269.007 308.375 269.016 308.545 269.044C310.733 268.205 313.242 268.016 315.5 267.707C315.588 267.695 315.675 267.687 315.763 267.675C312.263 267.545 308.483 266.243 307.009 263.359C306.996 263.472 306.998 263.605 307.022 263.768C307.305 265.701 308.218 267.19 309.769 267.667Z" fill="#F3673C"/>
<path d="M326.875 260.909C326.845 262.941 325.807 264.574 324.556 264.555C323.305 264.536 322.316 262.874 322.347 260.842C322.377 258.809 323.415 257.177 324.666 257.196C325.917 257.214 326.906 258.877 326.875 260.909Z" fill="#331311"/>
<path d="M324.483 259.93C324.472 260.737 324.166 261.388 323.801 261.382C323.436 261.377 323.151 260.718 323.163 259.91C323.175 259.102 323.48 258.452 323.845 258.457C324.21 258.463 324.496 259.122 324.483 259.93Z" fill="white"/>
<path d="M327.293 280.309C327.293 280.309 333.904 283.168 343.961 278.01C343.961 278.01 336.333 282.09 332.673 282.875C332.673 282.875 329.329 281.471 327.293 280.309Z" fill="#E8AD29"/>
<path d="M339.899 301.919C339.899 301.919 342.563 314.246 361.431 313.565C377.624 312.981 383.411 305.08 386.111 299.2C386.66 298.005 386.426 296.247 386.426 296.247L381.891 302.169L363.474 309.443C363.474 309.443 346.521 307.208 346.055 306.824C345.589 306.44 339.899 301.919 339.899 301.919Z" fill="#E19D14"/>
<path d="M372.095 294.567C368.566 294.465 367.141 294.54 364.14 293.269C359.71 291.391 356.105 288.652 351.296 288.475C346.488 288.299 341.245 290.721 339.649 295.261C338.442 298.694 339.587 302.657 341.933 305.439C344.28 308.221 347.665 309.95 351.145 311.012C362.429 314.454 375.626 310.934 383.421 302.079C384.891 300.41 386.218 298.462 386.426 296.247C383.85 298.332 380.872 299.919 377.705 300.896C379.332 299.201 380.323 296.909 380.443 294.563C378.948 296.127 377.036 297.289 374.959 297.897C376.404 296.584 377.065 293.551 376.574 291.661C374.786 294.513 373.075 294.505 371.989 294.583" fill="#EAB230"/>
<path d="M347.778 277.356C347.671 277.018 347.597 276.674 347.55 276.329L347.778 277.356Z" fill="#F8DD97"/>
<path d="M345.404 277.593L345.958 277.266C345.955 277.304 345.951 277.341 345.948 277.378C345.665 277.452 345.468 277.556 345.404 277.593Z" fill="#F1BE45"/>
<path d="M347.858 277.714C347.4 277.398 346.947 277.298 346.557 277.298C346.329 277.298 346.122 277.332 345.948 277.378C345.951 277.341 345.955 277.304 345.958 277.266L347.55 276.329C347.597 276.673 347.671 277.018 347.778 277.356L347.858 277.714Z" fill="#F6C756"/>
<path d="M345.382 277.606C345.382 277.606 345.39 277.601 345.404 277.593L345.382 277.606Z" fill="#F1BE45"/>
<path d="M347.715 266.424C347.032 266.424 346.355 265.858 346.679 265.05C347.432 263.175 347.081 261.199 345.686 259.728C345.112 259.123 345.451 258.365 346.021 258.062C346.808 259.542 347.315 261.165 347.6 262.823C347.805 264.02 347.901 265.216 347.893 266.411C347.834 266.42 347.775 266.424 347.715 266.424Z" fill="#FCE09F"/>
<path d="M347.893 266.411C347.901 265.217 347.805 264.02 347.6 262.823C347.315 261.165 346.808 259.542 346.021 258.062C346.181 257.977 346.359 257.928 346.54 257.928C346.799 257.928 347.066 258.029 347.295 258.271C349.184 260.262 349.766 263.175 348.74 265.729C348.573 266.146 348.244 266.359 347.893 266.411Z" fill="#FDE5A9"/>
<path d="M395.653 296.174C394.987 296.174 394.327 295.581 394.71 294.825C395.812 292.65 396.2 290.367 395.842 287.952C395.737 287.242 396.298 286.843 396.854 286.843C397.304 286.843 397.75 287.105 397.835 287.677C398.241 290.418 397.817 293.135 396.563 295.609C396.361 296.008 396.006 296.175 395.653 296.174Z" fill="#FCE09F"/>
<path d="M258.054 94.7649C258.054 94.7649 257.917 90.4422 253.21 89.9298C249.481 89.5245 246.723 93.077 245.831 95.1543C238.523 112.171 224.713 115.307 219.726 110.525C211.605 102.737 198.54 100.505 198.54 100.505C178.268 94.2366 160.263 94.6092 146.077 94.9811C135.026 95.271 126.294 95.561 120.613 92.7127C115.31 90.0536 113.242 85.7621 112.659 81.4831C118.282 72.2029 122.233 61.1645 123.856 51.0737C128.273 23.6278 102.428 0.414383 75.0658 0.00561523C47.7048 -0.403168 25.1878 21.7981 24.7726 49.5936C24.3661 76.8246 35.602 83.8329 71.3256 99.671C71.3249 104.478 67.8037 107.545 66.3327 110.779C25.1275 201.404 135.227 205.474 135.227 205.474C280.853 212.564 258.054 94.7649 258.054 94.7649Z" fill="#F1BE45"/>
<path d="M75.0658 0.00561523C74.8809 0.00283443 74.6946 0.000743398 74.5096 4.81978e-05C74.6946 0.000743398 74.8802 0.00283443 75.0658 0.00561523Z" fill="#FDDE8C"/>
<path d="M130.922 98.5398C128.293 98.5398 125.66 98.3104 123.054 97.8474C117.404 96.8421 109.735 95.1361 108.387 88.5623C108.107 87.2011 108.084 85.8016 108.207 84.398C108.691 84.2708 109.266 84.1749 109.9 84.1749C110.983 84.1749 112.24 84.4543 113.513 85.331L113.292 84.3376C114.329 87.6001 116.496 90.6479 120.613 92.7126C124.568 94.6953 130.002 95.1577 136.668 95.1577C140.329 95.1577 144.362 95.0186 148.724 94.915C147.439 95.4496 146.138 95.9495 144.801 96.3749C140.301 97.8091 135.618 98.5398 130.922 98.5398ZM108.236 84.088C108.467 81.83 109.052 79.5664 109.533 77.4384C110.401 73.6002 111.48 69.8113 112.292 65.9599C113.135 61.9639 113.584 57.9505 113.611 53.9281C114.586 53.7828 115.499 53.1926 115.965 52.0323C118.814 44.937 117.196 36.8456 111.949 31.3125C111.313 30.6416 110.572 30.3615 109.851 30.3615C109.348 30.3615 108.854 30.4977 108.41 30.7327C107.386 28.8056 106.192 26.9661 104.811 25.2462C100.18 19.4781 93.6742 14.8849 86.9405 11.9101C79.4831 8.61559 71.6037 7.40316 63.6388 7.40316C57.7699 7.40316 51.8531 8.0622 46.0314 9.03201C54.0659 3.34179 63.8209 -3.8147e-05 74.3247 -3.8147e-05C74.3866 -3.8147e-05 74.4478 -3.8147e-05 74.5096 -3.8147e-05C74.6946 0.000663757 74.8809 0.00275421 75.0658 0.00553131C100.357 0.383026 124.352 20.2449 124.351 44.9224C124.351 46.9434 124.191 48.9963 123.856 51.0736C122.233 61.1644 118.282 72.2028 112.659 81.4831L108.236 84.088Z" fill="#FCD067"/>
<path d="M100.851 194.701C87.4098 187.983 74.584 177.656 65.5923 165.586C61.8396 160.549 58.9886 155.104 57.1428 149.396C58.9135 202.646 135.227 205.474 135.227 205.474C135.919 205.508 136.597 205.53 137.281 205.558C124.627 203.785 112.299 200.421 100.851 194.701Z" fill="#FCD472"/>
<path d="M258.054 94.765C258.054 94.765 257.917 90.4422 253.21 89.9299C251.141 89.7053 249.373 90.6995 248.056 91.9828C251.476 97.5555 253.745 103.739 254.095 110.451C254.763 123.287 252.501 136.823 247.676 148.728C241.263 164.55 230.657 178.677 217.779 190.079C270.574 159.466 258.054 94.765 258.054 94.765Z" fill="#FCD472"/>
<path d="M26.752 37.8405C26.752 37.8405 20.0099 44.6757 13.0685 45.5176C10.55 45.8235 8.04353 45.3403 5.90926 44.8579C2.16116 44.0097 -0.439036 43.1623 0.0617171 46.5847C0.847641 51.9566 3.38401 56.093 7.69425 57.418C7.69425 57.418 4.49606 58.9468 3.59723 61.1408C3.59723 61.1408 10.2263 61.8701 28.0316 68.1262C28.0316 68.1262 39.9783 60.7383 35.7293 55.3144C31.4796 49.8918 24.9214 44.4338 27.9018 38.1728C30.8822 31.9111 26.752 37.8405 26.752 37.8405Z" fill="#F57853"/>
<path d="M27.2422 42.5645C27.0241 41.1678 27.1781 39.7364 27.8602 38.2612C27.1792 39.735 27.0347 41.1636 27.2516 42.5582C27.2487 42.5603 27.2452 42.5624 27.2422 42.5645ZM27.8611 38.2591C27.8635 38.2542 27.8657 38.2493 27.8682 38.2438C27.8657 38.2493 27.8635 38.2542 27.8611 38.2591ZM27.8722 38.2354C27.8736 38.2327 27.8746 38.2299 27.8763 38.2271C27.8749 38.2299 27.8736 38.2327 27.8722 38.2354ZM27.8836 38.2111C27.8839 38.2104 27.8841 38.2097 27.8844 38.209C27.8841 38.2097 27.8839 38.2104 27.8836 38.2111Z" fill="#F79463"/>
<path d="M13.1937 47.686C11.7818 47.686 10.3162 47.5171 8.78538 47.1431C6.14445 46.4973 3.65341 45.4447 1.28187 44.1364C1.4296 44.1148 1.58845 44.1044 1.75815 44.1044C2.79935 44.1044 4.24078 44.4819 5.91009 44.8587C7.57969 45.2362 9.47682 45.6137 11.4296 45.6137C11.9727 45.6137 12.5205 45.5844 13.0685 45.5177C20.0099 44.6758 26.752 37.8406 26.752 37.8406C26.752 37.8406 28.5209 35.301 28.9082 35.301C28.9554 35.301 28.9823 35.3393 28.9823 35.4255C28.9823 35.7091 28.692 36.5121 27.9018 38.1729C27.8958 38.1847 27.8901 38.1973 27.8844 38.2091C27.8841 38.2098 27.8839 38.2105 27.8836 38.2112C27.8811 38.216 27.8787 38.2216 27.8763 38.2271C27.8746 38.2299 27.8736 38.2327 27.8722 38.2355C27.8709 38.2383 27.8695 38.2411 27.8681 38.2438C27.8657 38.2494 27.8635 38.2543 27.8611 38.2591C27.8608 38.2598 27.8605 38.2605 27.8602 38.2612C27.1781 39.7364 27.0241 41.1678 27.2422 42.5645C22.848 45.4009 18.3791 47.6867 13.1937 47.686Z" fill="#F68766"/>
<path d="M3.60294 61.127C3.6037 61.1249 3.60453 61.1228 3.60537 61.1214C3.60453 61.1228 3.6037 61.1249 3.60294 61.127ZM3.6094 61.1117C3.60968 61.1103 3.61024 61.1096 3.61051 61.1089C3.61024 61.1096 3.60968 61.1103 3.6094 61.1117Z" fill="#F89D81"/>
<path d="M28.0316 68.1262C27.773 68.0351 27.5178 67.9462 27.2636 67.8572C27.5178 67.9462 27.773 68.0351 28.0316 68.1262ZM28.034 68.1248H28.0343C28.0343 68.1248 28.0343 68.1248 28.034 68.1248Z" fill="#F79463"/>
<path d="M28.0316 68.1262C27.773 68.0351 27.5178 67.9462 27.2636 67.8572C10.0362 61.8493 3.59723 61.1408 3.59723 61.1408C3.59911 61.136 3.60099 61.1311 3.60293 61.1269C3.6037 61.1249 3.60453 61.1228 3.60536 61.1214C3.60668 61.1179 3.60807 61.1144 3.60939 61.1117C3.60967 61.1103 3.61023 61.1096 3.61051 61.1089C3.74385 60.7926 3.92766 60.4929 4.139 60.2079C7.69968 60.6744 11.1915 61.533 14.7538 62.0224C18.8335 62.5834 22.9979 62.7099 27.108 62.9136C29.3913 63.0269 31.6746 63.1298 33.9579 63.2383C31.4715 65.9781 28.1413 68.0581 28.0343 68.1248H28.034C28.0337 68.1248 28.0335 68.1255 28.0333 68.1255C28.0327 68.1255 28.0324 68.1255 28.0321 68.1262H28.0319H28.0316Z" fill="#F68766"/>
<path d="M7.69426 57.4182C7.69426 57.4182 4.49606 58.9469 3.59724 61.141C3.59724 61.141 3.82123 61.1653 4.29104 61.2432C10.3702 58.9135 17.3423 58.3866 23.6155 57.5301C23.8585 57.4974 24.1018 57.4731 24.3446 57.4411C14.6224 57.0782 4.12023 53.4611 0.0250858 45.451C-0.0118294 45.7631 -0.00425325 46.1344 0.0617213 46.5849C0.847646 51.9567 3.38402 56.0931 7.69426 57.4182Z" fill="#F3673C"/>
<path d="M55.2185 38.6434C55.1344 44.2892 52.2493 48.824 48.7754 48.7725C45.3001 48.7204 42.552 44.1015 42.6368 38.4557C42.7209 32.8093 45.606 28.2745 49.0799 28.3267C52.5552 28.3781 55.3033 32.9977 55.2185 38.6434Z" fill="#331311"/>
<path d="M48.5731 35.9225C48.5404 38.1659 47.6916 39.9735 46.678 39.9582C45.6644 39.9429 44.8705 38.1117 44.9038 35.8676C44.9372 33.6235 45.786 31.8174 46.7996 31.832C47.8126 31.8473 48.6072 33.6784 48.5731 35.9225Z" fill="white"/>
<path d="M56.3802 92.5395C56.3802 92.5395 74.7453 100.483 102.685 86.152C102.685 86.152 81.4936 97.4887 71.3256 99.6709C71.3256 99.6709 62.0343 95.7701 56.3802 92.5395Z" fill="#E8AD29"/>
<path d="M91.4023 152.578C91.4023 152.578 98.8014 186.825 151.222 184.934C196.211 183.312 212.289 161.361 219.79 145.024C221.314 141.704 220.665 136.82 220.665 136.82L208.064 153.272L156.899 173.482C156.899 173.482 109.798 167.274 108.504 166.206C107.208 165.138 91.4023 152.578 91.4023 152.578Z" fill="#E19D14"/>
<path d="M180.85 132.153C171.046 131.869 167.087 132.079 158.75 128.546C146.441 123.33 136.424 115.719 123.065 115.229C109.706 114.739 95.1404 121.469 90.7064 134.081C87.3528 143.618 90.534 154.63 97.0536 162.358C103.573 170.086 112.976 174.892 122.647 177.841C153.996 187.403 190.66 177.623 212.317 153.023C216.401 148.385 220.087 142.973 220.665 136.82C213.508 142.612 205.235 147.023 196.437 149.737C200.956 145.027 203.709 138.66 204.044 132.141C199.89 136.487 194.578 139.716 188.808 141.404C192.822 137.758 194.658 129.329 193.294 124.08C188.325 132.003 183.573 131.98 180.555 132.198" fill="#EAB230"/>
<path d="M113.292 84.3376C112.994 83.3977 112.789 82.4404 112.659 81.4831L113.292 84.3376Z" fill="#F8DD97"/>
<path d="M106.697 84.9946L108.236 84.0881C108.225 84.1917 108.216 84.2953 108.207 84.3981C107.422 84.6046 106.874 84.8938 106.697 84.9946Z" fill="#F1BE45"/>
<path d="M113.513 85.3311C112.24 84.4544 110.983 84.1749 109.9 84.1749C109.266 84.1749 108.691 84.2709 108.207 84.3981C108.216 84.2952 108.225 84.1916 108.236 84.088L112.659 81.4831C112.789 82.4404 112.994 83.3977 113.292 84.3376L113.513 85.3311Z" fill="#F6C756"/>
<path d="M106.635 85.0315C106.635 85.0315 106.656 85.0183 106.697 84.9946L106.635 85.0315Z" fill="#F1BE45"/>
<path d="M113.116 53.9648C111.219 53.9641 109.336 52.3923 110.239 50.1461C112.329 44.9384 111.355 39.4484 107.48 35.3627C105.885 33.6817 106.825 31.5738 108.41 30.7326C110.595 34.844 112.005 39.3545 112.796 43.9609C113.366 47.2861 113.633 50.6098 113.611 53.928C113.447 53.9523 113.282 53.9648 113.116 53.9648Z" fill="#FCE09F"/>
<path d="M113.611 53.9282C113.633 50.61 113.367 47.2863 112.796 43.9611C112.005 39.3547 110.595 34.8443 108.41 30.7329C108.854 30.4979 109.348 30.3616 109.851 30.3616C110.572 30.3616 111.313 30.6418 111.949 31.3126C117.196 36.8457 118.814 44.9372 115.965 52.0324C115.499 53.1927 114.586 53.7829 113.611 53.9282Z" fill="#FDE5A9"/>
<path d="M246.3 136.618C244.45 136.618 242.616 134.968 243.68 132.869C246.742 126.828 247.819 120.485 246.823 113.776C246.531 111.803 248.092 110.693 249.636 110.693C250.886 110.693 252.125 111.422 252.361 113.011C253.49 120.626 252.311 128.175 248.827 135.048C248.267 136.155 247.281 136.619 246.3 136.618Z" fill="#FCE09F"/>
<path d="M254.884 262.11C254.884 262.11 254.835 260.554 253.141 260.369C251.798 260.223 250.806 261.502 250.485 262.25C247.854 268.375 242.883 269.504 241.088 267.782C238.165 264.979 233.463 264.176 233.463 264.176C226.166 261.919 219.685 262.054 214.579 262.187C210.601 262.292 207.458 262.396 205.413 261.371C203.505 260.414 202.76 258.869 202.55 257.329C204.574 253.989 205.997 250.015 206.581 246.383C208.171 236.505 198.868 228.149 189.019 228.002C179.171 227.855 171.066 235.846 170.917 245.851C170.77 255.652 174.815 258.175 187.673 263.876C187.673 265.606 186.405 266.71 185.876 267.874C171.044 300.493 210.674 301.958 210.674 301.958C263.09 304.51 254.884 262.11 254.884 262.11Z" fill="#F1BE45"/>
<path d="M189.019 228.002C188.953 228.001 188.886 228 188.819 228C188.886 228 188.952 228.001 189.019 228.002Z" fill="#FDDE8C"/>
<path d="M209.124 263.468C208.178 263.468 207.23 263.386 206.292 263.219C204.258 262.857 201.498 262.243 201.013 259.877C200.912 259.387 200.904 258.883 200.948 258.378C201.122 258.332 201.329 258.298 201.557 258.298C201.947 258.298 202.4 258.398 202.858 258.714L202.778 258.356C203.151 259.531 203.932 260.628 205.413 261.371C206.837 262.084 208.793 262.251 211.192 262.251C212.51 262.251 213.962 262.201 215.532 262.164C215.069 262.356 214.601 262.536 214.12 262.689C212.5 263.205 210.814 263.468 209.124 263.468ZM200.958 258.266C201.042 257.454 201.252 256.639 201.425 255.873C201.738 254.491 202.126 253.128 202.419 251.741C202.722 250.303 202.883 248.859 202.893 247.411C203.244 247.358 203.573 247.146 203.74 246.728C204.766 244.174 204.184 241.262 202.295 239.27C202.066 239.029 201.799 238.928 201.54 238.928C201.359 238.928 201.181 238.977 201.021 239.062C200.653 238.368 200.223 237.706 199.726 237.087C198.059 235.011 195.717 233.358 193.293 232.287C190.609 231.101 187.773 230.665 184.906 230.665C182.794 230.665 180.664 230.902 178.569 231.251C181.46 229.203 184.972 228 188.752 228C188.775 228 188.797 228 188.819 228C188.886 228 188.953 228.001 189.019 228.002C198.122 228.138 206.759 235.287 206.759 244.169C206.759 244.897 206.701 245.636 206.581 246.383C205.997 250.015 204.574 253.989 202.55 257.329L200.958 258.266Z" fill="#FCD067"/>
<path d="M198.3 298.08C193.462 295.662 188.846 291.945 185.609 287.601C184.259 285.788 183.232 283.828 182.568 281.773C183.205 300.94 210.674 301.958 210.674 301.958C210.923 301.97 211.167 301.978 211.413 301.989C206.858 301.35 202.421 300.139 198.3 298.08Z" fill="#FCD472"/>
<path d="M254.884 262.11C254.884 262.11 254.835 260.554 253.141 260.369C252.396 260.288 251.759 260.646 251.285 261.108C252.516 263.114 253.333 265.34 253.459 267.756C253.7 272.376 252.885 277.248 251.148 281.533C248.84 287.228 245.023 292.313 240.387 296.417C259.39 285.398 254.884 262.11 254.884 262.11Z" fill="#FCD472"/>
<path d="M171.629 241.62C171.629 241.62 169.202 244.08 166.704 244.383C165.797 244.494 164.895 244.32 164.127 244.146C162.778 243.841 161.842 243.536 162.022 244.768C162.305 246.701 163.218 248.19 164.769 248.667C164.769 248.667 163.618 249.217 163.295 250.007C163.295 250.007 165.681 250.269 172.09 252.521C172.09 252.521 176.39 249.862 174.86 247.91C173.331 245.958 170.97 243.993 172.043 241.74C173.116 239.486 171.629 241.62 171.629 241.62Z" fill="#F57853"/>
<path d="M171.806 243.321C171.727 242.818 171.782 242.303 172.028 241.772C171.783 242.302 171.731 242.816 171.809 243.318C171.808 243.319 171.807 243.32 171.806 243.321ZM172.028 241.771C172.029 241.769 172.03 241.767 172.031 241.765C172.03 241.767 172.029 241.769 172.028 241.771ZM172.032 241.762C172.033 241.761 172.033 241.76 172.034 241.759C172.033 241.76 172.033 241.761 172.032 241.762ZM172.036 241.754C172.037 241.753 172.037 241.753 172.037 241.753C172.037 241.753 172.037 241.753 172.036 241.754Z" fill="#F79463"/>
<path d="M166.749 245.164C166.241 245.164 165.713 245.103 165.162 244.969C164.212 244.736 163.315 244.357 162.461 243.886C162.515 243.879 162.572 243.875 162.633 243.875C163.008 243.875 163.526 244.011 164.127 244.146C164.728 244.282 165.411 244.418 166.114 244.418C166.309 244.418 166.507 244.408 166.704 244.384C169.202 244.081 171.629 241.62 171.629 241.62C171.629 241.62 172.266 240.706 172.405 240.706C172.422 240.706 172.432 240.72 172.432 240.751C172.432 240.853 172.327 241.142 172.043 241.74C172.041 241.744 172.039 241.749 172.037 241.753C172.037 241.753 172.037 241.753 172.036 241.754C172.036 241.755 172.035 241.757 172.034 241.759C172.033 241.76 172.033 241.761 172.032 241.762C172.032 241.763 172.031 241.764 172.031 241.765C172.03 241.767 172.029 241.769 172.028 241.771C172.028 241.771 172.028 241.771 172.028 241.772C171.782 242.303 171.727 242.818 171.806 243.321C170.224 244.342 168.615 245.164 166.749 245.164Z" fill="#F68766"/>
<path d="M163.297 250.002C163.297 250.001 163.297 250 163.298 250C163.297 250 163.297 250.001 163.297 250.002ZM163.299 249.996C163.299 249.996 163.299 249.996 163.3 249.995C163.299 249.996 163.299 249.996 163.299 249.996Z" fill="#F89D81"/>
<path d="M172.09 252.521C171.997 252.488 171.905 252.456 171.813 252.424C171.905 252.456 171.997 252.488 172.09 252.521ZM172.091 252.521H172.091C172.091 252.521 172.091 252.521 172.091 252.521Z" fill="#F79463"/>
<path d="M172.09 252.521C171.997 252.488 171.905 252.456 171.813 252.424C165.612 250.262 163.295 250.007 163.295 250.007C163.295 250.005 163.296 250.003 163.297 250.002C163.297 250.001 163.297 250 163.298 250C163.298 249.999 163.299 249.997 163.299 249.996C163.299 249.996 163.299 249.996 163.3 249.995C163.348 249.882 163.414 249.774 163.49 249.671C164.771 249.839 166.028 250.148 167.31 250.324C168.779 250.526 170.278 250.572 171.757 250.645C172.579 250.686 173.401 250.723 174.223 250.762C173.328 251.748 172.129 252.497 172.091 252.521H172.091C172.09 252.521 172.09 252.521 172.09 252.521C172.09 252.521 172.09 252.521 172.09 252.521H172.09H172.09Z" fill="#F68766"/>
<path d="M164.769 248.667C164.769 248.667 163.618 249.217 163.295 250.007C163.295 250.007 163.375 250.016 163.545 250.044C165.733 249.205 168.242 249.016 170.5 248.707C170.588 248.695 170.675 248.687 170.763 248.675C167.263 248.545 163.483 247.243 162.009 244.359C161.996 244.472 161.998 244.605 162.022 244.768C162.305 246.701 163.218 248.19 164.769 248.667Z" fill="#F3673C"/>
<path d="M181.875 241.909C181.845 243.941 180.807 245.574 179.556 245.555C178.305 245.536 177.316 243.874 177.347 241.842C177.377 239.809 178.415 238.177 179.666 238.196C180.917 238.214 181.906 239.877 181.875 241.909Z" fill="#331311"/>
<path d="M179.483 240.93C179.472 241.737 179.166 242.388 178.801 242.382C178.436 242.377 178.151 241.718 178.163 240.91C178.175 240.102 178.48 239.452 178.845 239.457C179.21 239.463 179.496 240.122 179.483 240.93Z" fill="white"/>
<path d="M182.293 261.309C182.293 261.309 188.904 264.168 198.961 259.01C198.961 259.01 191.333 263.09 187.673 263.875C187.673 263.875 184.329 262.471 182.293 261.309Z" fill="#E8AD29"/>
<path d="M194.899 282.919C194.899 282.919 197.563 295.246 216.431 294.565C232.624 293.981 238.411 286.08 241.111 280.2C241.66 279.005 241.426 277.247 241.426 277.247L236.891 283.169L218.474 290.443C218.474 290.443 201.521 288.208 201.055 287.824C200.589 287.44 194.899 282.919 194.899 282.919Z" fill="#E19D14"/>
<path d="M227.095 275.567C223.566 275.465 222.141 275.54 219.14 274.269C214.71 272.391 211.105 269.652 206.296 269.475C201.488 269.299 196.245 271.721 194.649 276.261C193.442 279.694 194.587 283.657 196.933 286.439C199.28 289.221 202.665 290.95 206.145 292.012C217.429 295.454 230.626 291.934 238.421 283.079C239.891 281.41 241.218 279.462 241.426 277.247C238.85 279.332 235.872 280.919 232.705 281.896C234.332 280.201 235.323 277.909 235.443 275.563C233.948 277.127 232.036 278.289 229.959 278.897C231.404 277.584 232.065 274.551 231.574 272.661C229.786 275.513 228.075 275.505 226.989 275.583" fill="#EAB230"/>
<path d="M202.778 258.356C202.671 258.018 202.597 257.674 202.55 257.329L202.778 258.356Z" fill="#F8DD97"/>
<path d="M200.404 258.593L200.958 258.266C200.955 258.304 200.951 258.341 200.948 258.378C200.665 258.452 200.468 258.556 200.404 258.593Z" fill="#F1BE45"/>
<path d="M202.858 258.714C202.4 258.398 201.947 258.298 201.557 258.298C201.329 258.298 201.122 258.332 200.948 258.378C200.951 258.341 200.955 258.304 200.958 258.266L202.55 257.329C202.597 257.673 202.671 258.018 202.778 258.356L202.858 258.714Z" fill="#F6C756"/>
<path d="M200.382 258.606C200.382 258.606 200.39 258.601 200.404 258.593L200.382 258.606Z" fill="#F1BE45"/>
<path d="M202.715 247.424C202.032 247.424 201.355 246.858 201.679 246.05C202.432 244.175 202.081 242.199 200.686 240.728C200.112 240.123 200.451 239.365 201.021 239.062C201.808 240.542 202.315 242.165 202.6 243.823C202.805 245.02 202.901 246.216 202.893 247.411C202.834 247.42 202.775 247.424 202.715 247.424Z" fill="#FCE09F"/>
<path d="M202.893 247.411C202.901 246.217 202.805 245.02 202.6 243.823C202.315 242.165 201.808 240.542 201.021 239.062C201.181 238.977 201.359 238.928 201.54 238.928C201.799 238.928 202.066 239.029 202.295 239.271C204.184 241.262 204.766 244.175 203.74 246.729C203.573 247.146 203.244 247.359 202.893 247.411Z" fill="#FDE5A9"/>
<path d="M250.653 277.174C249.987 277.174 249.327 276.581 249.71 275.825C250.812 273.65 251.2 271.367 250.842 268.952C250.737 268.242 251.298 267.843 251.854 267.843C252.304 267.843 252.75 268.105 252.835 268.677C253.241 271.418 252.817 274.135 251.563 276.609C251.361 277.008 251.006 277.175 250.653 277.174Z" fill="#FCE09F"/>
</svg>
