<svg width="40" height="40" viewBox="0 0 40 40" fill="none" xmlns="http://www.w3.org/2000/svg">
<path d="M37.7923 40C39.0114 40 40 39.0116 40 37.7924V2.20765C40 0.988277 39.0114 0 37.7923 0H2.20766C0.988125 0 0 0.988277 0 2.20765V37.7924C0 39.0116 0.988125 40 2.20766 40H37.7923Z" fill="#395185"/>
<path d="M27.5992 40.0001V24.51H32.7988L33.5772 18.4733H27.5992V14.619C27.5992 12.8712 28.0847 11.6801 30.5911 11.6801L33.7878 11.6787V6.27947C33.2347 6.20588 31.3372 6.0415 29.1297 6.0415C24.5207 6.0415 21.3653 8.85477 21.3653 14.0213V18.4733H16.1525V24.51H21.3653V40.0001H27.5992Z" fill="white"/>
</svg>
