<svg width="40" height="31" viewBox="0 0 40 31" fill="none" xmlns="http://www.w3.org/2000/svg">
<path d="M9.09088 30.419V14.7527L4.2979 10.3077L0 7.84106V27.6544C0 29.1841 1.22272 30.419 2.72727 30.419H9.09088Z" fill="#4285F4"/>
<path d="M30.9091 30.419H37.2727C38.7818 30.419 40 29.1795 40 27.6544V7.84106L35.132 10.6665L30.9091 14.7527V30.419Z" fill="#34A853"/>
<path d="M9.09092 14.7526L8.43872 8.63123L9.09092 2.77246L20 11.0664L30.909 2.77246L31.6386 8.31488L30.909 14.7526L20 23.0465L9.09092 14.7526Z" fill="#EA4335"/>
<path d="M30.9091 2.77249V14.7526L40 7.84101V4.15481C40 0.735866 36.15 -1.21321 33.4546 0.837237L30.9091 2.77249Z" fill="#FBBC04"/>
<path d="M0 7.84101L4.18105 11.0198L9.09088 14.7526V2.77249L6.54544 0.837237C3.84544 -1.21321 0 0.735866 0 4.15481V7.84101Z" fill="#C5221F"/>
</svg>
