<svg width="40" height="40" viewBox="0 0 40 40" fill="none" xmlns="http://www.w3.org/2000/svg">
<path d="M34.0819 34.0825H28.1551V24.8008C28.1551 22.5875 28.1156 19.7383 25.0726 19.7383C21.9858 19.7383 21.5135 22.1498 21.5135 24.6397V34.0819H15.5867V14.9949H21.2764V17.6033H21.3561C22.5162 15.6197 24.6734 14.4349 26.9698 14.5201C32.9768 14.5201 34.0844 18.4714 34.0844 23.6117L34.0819 34.0825ZM8.89938 12.3858C6.99987 12.3862 5.45974 10.8466 5.4594 8.94701C5.45906 7.04746 6.99864 5.5073 8.89815 5.50695C10.7977 5.50661 12.3378 7.04623 12.3381 8.94578C12.3383 9.85798 11.9761 10.7329 11.3312 11.378C10.6863 12.0231 9.81156 12.3857 8.89938 12.3858ZM11.8628 34.0825H5.92984V14.9949H11.8628V34.0825ZM37.0366 0.00298262H2.95164C1.34072 -0.0151971 0.0196605 1.27522 0 2.88616V37.1133C0.0189874 38.725 1.33994 40.0167 2.95164 39.9998H37.0366C38.6515 40.0198 39.9776 38.7282 40 37.1133V2.88369C39.977 1.26957 38.6507 -0.0207753 37.0366 0.000253418" fill="#0A66C2"/>
</svg>
