<svg width="40" height="40" viewBox="0 0 40 40" fill="none" xmlns="http://www.w3.org/2000/svg">
<path d="M20 0C8.95422 0 0 8.95422 0 20C0 31.0458 8.95422 40 20 40C31.0458 40 40 31.0458 40 20C40 8.95422 31.0458 0 20 0Z" fill="#40B3E0"/>
<path d="M29.7316 11.5048L26.1595 29.5152C26.1595 29.5152 25.6599 30.7643 24.286 30.1648L16.0426 23.8448L13.0451 22.396L7.99915 20.6973C7.99915 20.6973 7.22477 20.4226 7.14977 19.8231C7.07493 19.2235 8.02415 18.8988 8.02415 18.8988L28.0829 11.0301C28.0829 11.0301 29.7316 10.3057 29.7316 11.5048Z" fill="white"/>
<path d="M15.4091 29.313C15.4091 29.313 15.1684 29.2905 14.8686 28.3411C14.5689 27.3919 13.0452 22.3959 13.0452 22.3959L25.1603 14.7022C25.1603 14.7022 25.8599 14.2775 25.8349 14.7022C25.8349 14.7022 25.9597 14.777 25.585 15.1267C25.2103 15.4766 16.0677 23.6948 16.0677 23.6948" fill="#D2E5F1"/>
<path d="M19.2033 26.268L15.9427 29.2409C15.9427 29.2409 15.6878 29.4343 15.4089 29.313L16.0333 23.791" fill="#B5CFE4"/>
</svg>
