<svg width="40" height="32" viewBox="0 0 40 32" fill="none" xmlns="http://www.w3.org/2000/svg">
<path d="M40 3.7881C38.5283 4.43061 36.9466 4.86486 35.2866 5.06016C36.981 4.06031 38.2822 2.47715 38.8949 0.590806C37.3093 1.51648 35.553 2.1888 33.6838 2.55118C32.1867 0.981123 30.0539 0 27.6936 0C23.1613 0 19.4869 3.61699 19.4869 8.07828C19.4869 8.71143 19.5596 9.32802 19.6995 9.91925C12.879 9.58237 6.83214 6.36621 2.78459 1.47874C2.0782 2.67188 1.67351 4.05959 1.67351 5.54006C1.67351 8.34272 3.12243 10.8154 5.32441 12.264C3.97908 12.2221 2.71378 11.8587 1.60723 11.2537C1.60664 11.2874 1.60664 11.3212 1.60664 11.3552C1.60664 15.2693 4.43542 18.5345 8.18962 19.2765C7.50093 19.4612 6.77596 19.5598 6.02743 19.5598C5.49867 19.5598 4.98453 19.5093 4.48356 19.4149C5.52778 22.6245 8.55847 24.96 12.1495 25.0253C9.34094 27.1919 5.80241 28.4834 1.95764 28.4834C1.29529 28.4834 0.642013 28.4452 0 28.3706C3.63173 30.6627 7.94543 32 12.5798 32C27.6745 32 35.9287 19.6903 35.9287 9.01504C35.9287 8.66477 35.9208 8.31636 35.905 7.96997C37.5083 6.83099 38.8997 5.40813 40 3.7881Z" fill="#55ACEE"/>
</svg>
