<svg width="40" height="29" viewBox="0 0 40 29" fill="none" xmlns="http://www.w3.org/2000/svg">
<path d="M39.113 4.38627C38.6462 2.66102 37.2985 1.31332 35.5732 0.846473C32.4695 0 19.9776 0 19.9776 0C19.9776 0 7.48571 0.0256507 4.38198 0.872124C2.65672 1.33897 1.30903 2.68667 0.842179 4.41192C-0.096637 9.92682 -0.460877 18.33 0.867829 23.6243C1.33468 25.3495 2.68237 26.6972 4.40763 27.1641C7.51136 28.0106 20.0033 28.0106 20.0033 28.0106C20.0033 28.0106 32.4951 28.0106 35.5989 27.1641C37.3241 26.6972 38.6718 25.3495 39.1387 23.6243C40.1288 18.1017 40.434 9.70366 39.113 4.38627Z" fill="#FF0000"/>
<path d="M16.0018 20.0075L26.3647 14.0052L16.0018 8.00293V20.0075Z" fill="white"/>
</svg>
