<svg width="1017" height="680" viewBox="0 0 1017 680" fill="none" xmlns="http://www.w3.org/2000/svg">
<path d="M631.976 300.897C629.951 345.212 586.412 379.168 553.797 381.22C510.708 383.929 479.911 345.05 475.621 300.897C471.904 262.646 485.481 263.216 495.594 247.272C507.846 227.953 530.68 217.279 553.797 217.279C596.974 217.279 634.696 241.274 631.976 300.897Z" fill="#D82B62"/>
<path d="M584.096 377.082V452.979H523.501V377.082H584.096Z" fill="#F3A29C"/>
<path d="M621.863 332.814C632.67 316.404 646.423 315.683 652.165 335.092C657.908 354.501 638.954 370.471 623.523 364.577C608.09 358.684 621.863 332.814 621.863 332.814Z" fill="#F3A29C"/>
<path d="M634.622 333.243C641.861 331.917 645.571 353.499 629.694 354.211L632.959 346.68L629.895 340.417L634.622 333.243Z" fill="#EF7691"/>
<path d="M627.566 357.403C631.4 353.318 632.567 349.685 632.565 346.82C632.56 342.681 630.167 340.212 630.139 340.18L629.895 340.417L630.2 340.566C630.201 340.563 630.483 339.984 630.971 339.105C631.703 337.787 632.895 335.808 634.251 334.175C635.602 332.532 637.14 331.286 638.384 331.308C639.018 331.312 639.621 331.585 640.235 332.353C640.844 333.12 641.425 334.386 641.906 336.277L642.562 336.111C642.066 334.164 641.465 332.818 640.767 331.932C640.073 331.046 639.239 330.626 638.384 330.63C637.27 330.635 636.2 331.285 635.191 332.194C632.179 334.93 629.603 340.251 629.591 340.267L629.486 340.482L629.652 340.653L629.739 340.75C630.158 341.231 631.889 343.439 631.887 346.82C631.885 349.498 630.815 352.944 627.073 356.939L627.566 357.403Z" fill="#DE677E"/>
<path d="M485.228 332.814C474.418 316.404 460.667 315.683 454.924 335.092C449.182 354.501 468.135 370.471 483.567 364.577C498.998 358.684 485.228 332.814 485.228 332.814Z" fill="#F3A29C"/>
<path d="M472.468 333.243C465.229 331.917 461.519 353.499 477.396 354.211L474.131 346.68L477.195 340.417L472.468 333.243Z" fill="#EF7691"/>
<path d="M480.019 356.938C476.275 352.944 475.205 349.498 475.203 346.82C475.203 344.885 475.766 343.34 476.329 342.277C476.611 341.745 476.892 341.335 477.1 341.06C477.205 340.923 477.292 340.818 477.351 340.75L477.438 340.653L477.604 340.482L477.499 340.267C477.495 340.259 476.34 337.886 474.685 335.5C473.858 334.305 472.906 333.107 471.899 332.194C470.89 331.285 469.819 330.635 468.705 330.63C467.851 330.626 467.017 331.046 466.323 331.932C465.623 332.818 465.024 334.164 464.526 336.111L465.184 336.277C465.665 334.386 466.246 333.12 466.854 332.353C467.469 331.585 468.071 331.312 468.705 331.308C469.534 331.303 470.495 331.834 471.443 332.696C472.867 333.983 474.239 335.957 475.244 337.604C475.747 338.428 476.159 339.17 476.446 339.704C476.732 340.24 476.889 340.564 476.89 340.566L477.195 340.417L476.951 340.18C476.923 340.212 474.529 342.679 474.525 346.82C474.523 349.685 475.69 353.318 479.524 357.403L480.019 356.939" fill="#DE677E"/>
<path d="M584.096 378.761V406.995C562.32 436.516 523.501 426.917 523.501 426.917L524.179 378.761H584.096Z" fill="#DE677E"/>
<path d="M553.797 411.111C517.625 411.111 488.302 381.774 488.302 345.586V297.701C488.302 273.258 508.107 253.442 532.539 253.442H575.055C599.488 253.442 619.292 273.258 619.292 297.701V345.586C619.292 381.774 589.97 411.111 553.797 411.111Z" fill="#F3A29C"/>
<path d="M563.197 354.151C563.197 356.751 562.146 359.096 560.444 360.8C558.741 362.503 556.395 363.553 553.797 363.554C551.2 363.553 548.855 362.503 547.153 360.8C545.451 359.096 544.4 356.751 544.4 354.151H543.044C543.044 360.095 547.858 364.91 553.797 364.911C559.738 364.91 564.553 360.095 564.553 354.151H563.197Z" fill="#D82B62"/>
<path d="M495.222 256.373C495.222 256.373 483.75 237.348 498.118 220.574C498.118 220.574 508.442 239.698 495.222 256.373Z" fill="#D82B62"/>
<path d="M501.049 251.855C501.049 251.855 485.075 267.29 465.524 257.021C465.524 257.021 481.853 242.685 501.049 251.855Z" fill="#D82B62"/>
<path d="M527.789 330.631C527.789 336.05 525.481 340.441 522.638 340.441C519.791 340.441 517.485 336.05 517.485 330.631C517.485 325.212 519.791 320.821 522.638 320.821C525.481 320.821 527.789 325.212 527.789 330.631Z" fill="#2A2E4B"/>
<path d="M546.311 329.901H543.599C543.597 336.437 540.959 342.329 536.679 346.617C532.395 350.898 526.506 353.538 519.973 353.54C513.44 353.538 507.551 350.898 503.267 346.617C498.988 342.329 496.349 336.437 496.348 329.901C496.349 323.366 498.988 317.474 503.267 313.187C507.551 308.905 513.44 306.265 519.973 306.264C526.506 306.265 532.395 308.905 536.679 313.187C540.959 317.474 543.597 323.366 543.599 329.901H546.311H549.023C549.021 313.849 536.019 300.839 519.973 300.837C503.928 300.839 490.925 313.849 490.924 329.901C490.925 345.954 503.928 358.963 519.973 358.966C536.019 358.965 549.021 345.954 549.023 329.901H546.311Z" fill="white"/>
<path d="M590.111 330.631C590.111 336.05 587.803 340.441 584.958 340.441C582.112 340.441 579.807 336.05 579.807 330.631C579.807 325.212 582.112 320.821 584.958 320.821C587.803 320.821 590.111 325.212 590.111 330.631Z" fill="#2A2E4B"/>
<path d="M613.959 329.901H611.247C611.245 336.437 608.607 342.329 604.327 346.617C600.044 350.898 594.153 353.538 587.621 353.54C581.088 353.538 575.199 350.898 570.915 346.617C566.636 342.329 563.997 336.437 563.996 329.901C563.997 323.366 566.636 317.474 570.915 313.187C575.199 308.905 581.088 306.265 587.621 306.264C594.153 306.265 600.044 308.905 604.327 313.187C608.607 317.474 611.245 323.366 611.247 329.901H613.959H616.671C616.669 313.849 603.665 300.839 587.621 300.837C571.577 300.839 558.573 313.849 558.572 329.901C558.573 345.954 571.577 358.963 587.621 358.966C603.665 358.963 616.669 345.954 616.671 329.901H613.959Z" fill="white"/>
<path d="M496.419 272.144C496.419 272.144 538.028 250.199 565.676 266.104C593.325 282.01 596.435 314.857 623.736 306.356C623.736 306.356 644.472 297.223 621.662 265.412C598.854 233.602 583.248 227.378 553.555 234.293C523.858 241.208 504.538 246.586 496.419 272.144Z" fill="#D82B62"/>
<path d="M494.829 271.828C494.829 271.828 508.564 253.608 527.789 248.79C547.013 243.975 568.279 267.634 568.279 267.634C568.279 267.634 519.021 260.608 494.829 271.828Z" fill="#AF2153"/>
<path d="M488.403 294.746C488.403 294.746 493.036 328.561 488.403 349.198C488.403 349.198 481.631 296.763 488.403 294.746Z" fill="#D82B62"/>
<path d="M618.816 294.746C618.816 294.746 614.184 328.561 618.816 349.198C618.816 349.198 625.589 296.763 618.816 294.746Z" fill="#D82B62"/>
<path d="M534.378 292.107C527.23 288.684 514.519 284.928 502.744 293.32C500.768 294.727 501.519 297.835 503.909 298.247C507.686 298.899 513.106 299.573 519.242 299.535C524.011 299.504 529.656 298.33 533.871 297.245C536.348 296.607 536.686 293.211 534.378 292.107Z" fill="#D82B62"/>
<path d="M603.392 292.107C596.245 288.684 583.534 284.928 571.757 293.32C569.783 294.727 570.534 297.835 572.924 298.247C576.701 298.899 582.123 299.573 588.257 299.535C593.026 299.504 598.67 298.33 602.884 297.245C605.363 296.607 605.701 293.211 603.392 292.107Z" fill="#D82B62"/>
<path d="M575.951 377.818C575.272 379.031 574.469 380.3 573.371 381.563C569.87 385.779 563.924 389.83 553.739 390.016L553.724 390.062L552.975 390.047L552.947 389.986C543.397 389.798 537.513 386.203 533.963 382.234C532.589 380.745 531.545 379.168 530.795 377.751C529.099 374.492 528.657 371.929 528.657 371.929L578.112 372.023C578.112 372.023 577.703 374.584 575.951 377.818Z" fill="#E72B61"/>
<path d="M575.951 377.818C575.272 379.031 574.469 380.3 573.371 381.563C562.02 376.573 548.365 375.528 533.963 382.234C532.589 380.745 531.545 379.168 530.795 377.751C529.099 374.492 528.657 371.929 528.657 371.929L578.112 372.023C578.112 372.023 577.703 374.584 575.951 377.818Z" fill="#2A2E4B"/>
<path d="M764.012 641.498L320.655 641.958C320.655 641.958 328.926 624.648 340.832 601.707C341.713 600.011 342.621 598.273 343.544 596.51C359.802 565.483 381.675 526.29 398.747 505.031C418.409 480.557 464.865 463.109 496.419 453.572C514.805 448.023 528.123 445.162 528.123 445.162H579.053C579.053 445.162 591.013 447.726 607.908 452.731C639.435 462.051 686.57 481.181 708.429 505.031C713.229 510.267 717.744 516.602 721.976 523.631C748.878 568.359 764.012 641.498 764.012 641.498Z" fill="#9C88FF"/>
<path d="M320.655 641.958C320.655 641.958 320.709 641.844 320.816 641.62H430.587V641.844L320.655 641.958ZM434.655 641.84V641.62H577.642C577.937 641.62 578.231 641.612 578.518 641.589C578.604 641.583 578.689 641.575 578.773 641.567C586.536 640.859 585.719 629.123 577.931 629.123H493.569C493.569 629.118 493.566 629.11 493.562 629.097C493.551 629.062 493.53 628.987 493.497 628.878L491.09 622.08C616.126 617.044 685.515 552.713 705.275 531.276C709.57 526.614 715.535 523.809 721.869 523.634L721.976 523.631C748.878 568.359 764.012 641.498 764.012 641.498L434.655 641.84Z" fill="#8C7AE6"/>
<path d="M546.841 337.095H560.752V331.669H546.841V337.095Z" fill="white"/>
<path d="M607.91 452.725C553.027 513.137 496.419 453.579 496.419 453.579C514.808 448.018 528.128 445.155 528.128 445.155H579.057C579.057 445.155 591.017 447.729 607.91 452.725Z" fill="#F3A29C"/>
<path d="M430.587 642.041H434.655V573.145H430.587V642.041Z" fill="#F57819"/>
<path d="M434.221 615.8L415.731 592.214L412.53 594.726L431.021 618.313L434.221 615.8Z" fill="#F57819"/>
<path d="M671.686 642.041H675.754V573.145H671.686V642.041Z" fill="#9C88FF"/>
<path d="M675.321 618.313L691.738 597.37L688.537 594.858L672.119 615.8" fill="#9C88FF"/>
<path d="M492.644 481.478C492.719 481.528 500.138 486.593 511.768 491.668C523.398 496.739 539.246 501.839 556.235 501.844C565.14 501.844 574.361 500.434 583.397 496.855C592.434 493.279 601.272 487.529 609.388 478.939L606.432 476.142C598.701 484.319 590.394 489.705 581.9 493.071C573.406 496.434 564.714 497.773 556.235 497.774C540.069 497.78 524.696 492.873 513.394 487.937C507.742 485.472 503.11 483.004 499.899 481.159C498.295 480.237 497.045 479.47 496.201 478.937C495.779 478.67 495.459 478.462 495.246 478.323L495.011 478.165L494.939 478.118L492.644 481.478Z" fill="#8C7AE6"/>
<path d="M494.841 243.65C510.12 179.4 663.195 186.469 634.711 311.563C626.178 349.034 563.791 226.385 509.948 256.474C505.924 258.724 500.908 258.142 497.542 254.989C494.452 252.092 493.861 247.771 494.841 243.65Z" fill="#D82B62"/>
<path d="M578.918 641.539L578.768 641.566C578.403 641.607 578.023 641.62 577.642 641.62H280.692C276.747 641.62 273.235 639.789 270.944 636.912C269.235 634.781 268.218 632.068 268.218 629.125L268.176 628.99L221.936 498.274C218.397 488.289 225.802 477.802 236.393 477.802H429.189C435.698 477.802 441.486 481.899 443.657 488.031L493.49 628.881C493.545 629.043 493.572 629.125 493.572 629.125H577.927C585.67 629.125 586.526 640.711 578.918 641.539Z" fill="#67AEBB"/>
<path d="M357.463 556.713C362.338 570.897 356.826 585.651 345.149 589.668C333.474 593.685 320.057 585.443 315.182 571.261C310.306 557.077 315.819 542.323 327.496 538.306C339.171 534.289 352.588 542.529 357.463 556.713Z" fill="white"/>
<path d="M577.931 629.123H493.569C493.569 629.123 493.546 629.037 493.497 628.878L443.656 488.028C441.484 481.898 435.698 477.806 429.192 477.806H422.745C422.745 477.806 437.15 478.747 440.751 491.644C444.352 504.528 493.569 641.347 493.569 641.347L497.207 641.616H577.637C578.027 641.616 578.407 641.604 578.773 641.567C586.536 640.859 585.719 629.123 577.931 629.123Z" fill="#3B719A"/>
<path d="M577.642 641.62H280.692C276.747 641.62 273.235 639.789 270.944 636.912C278.228 637.538 285.182 637.839 291.817 637.839C435.955 637.839 430.477 496.252 429.318 479.428C433.618 481.138 438.788 484.615 440.752 491.644C444.352 504.528 493.569 641.347 493.569 641.347L497.207 641.616H577.637C577.938 641.616 578.232 641.609 578.518 641.589C578.231 641.612 577.937 641.62 577.642 641.62ZM493.569 629.123C493.569 629.123 493.568 629.113 493.562 629.097C493.566 629.11 493.569 629.118 493.57 629.123H493.569ZM442.822 486.1C442.821 486.098 442.819 486.096 442.818 486.094C442.819 486.096 442.821 486.098 442.822 486.1ZM442.813 486.084C440.204 481.048 434.982 477.806 429.192 477.806H429.189C429.189 477.803 429.189 477.802 429.189 477.802C434.98 477.802 440.204 481.047 442.813 486.084Z" fill="#58A5B0"/>
<path d="M577.637 641.616H497.207L493.569 641.347C493.569 641.347 444.352 504.528 440.752 491.644C438.788 484.615 433.618 481.138 429.318 479.428C429.249 478.418 429.194 477.859 429.189 477.806H429.192C434.982 477.806 440.204 481.048 442.813 486.084C442.815 486.087 442.817 486.091 442.818 486.094C442.819 486.096 442.821 486.098 442.822 486.1C443.141 486.718 443.42 487.362 443.657 488.031L493.49 628.881C493.526 628.988 493.55 629.062 493.562 629.097C493.568 629.113 493.569 629.123 493.569 629.123C493.572 629.124 493.572 629.125 493.572 629.125H576.6C577.495 633.236 578.281 637.374 578.918 641.539L578.768 641.566C578.685 641.574 578.603 641.582 578.518 641.589C578.232 641.609 577.938 641.616 577.637 641.616Z" fill="#3D809B"/>
<path d="M225.819 555.328V559.702C217.919 560.606 215.986 567.288 215.986 575.426V578.115C215.986 586.251 217.919 592.935 225.819 593.84V598.191H74.7739C68.576 598.191 63.5545 593.167 63.5545 586.964V566.575C63.5545 560.374 68.576 555.328 74.7739 555.328H225.819Z" fill="#3B719A"/>
<path d="M223.465 589.361C224.369 591.505 222.709 593.84 220.397 593.84L76.0557 593.944V559.596L220.397 559.702C221.238 559.702 221.995 560.016 222.562 560.52C223.57 561.362 224.033 562.813 223.465 564.178C222.267 567.038 222.309 571.011 222.309 575.426V578.115C222.309 582.529 222.267 586.503 223.465 589.361Z" fill="white"/>
<path d="M83.493 579.671V559.602L195.268 559.683C195.198 559.9 196.364 560.794 198.129 562.017C181.555 563.148 158.977 564.913 138.208 567.29H83.7388V570.387H114.967C107.429 571.574 100.732 572.867 95.4449 574.263H83.7388V577.357H86.5742C85.1023 578.105 84.0534 578.877 83.493 579.671Z" fill="#CAEDEF"/>
<path d="M83.493 598.199H70.8012C66.7994 598.199 63.5551 594.952 63.5551 590.949V562.589C63.5551 558.584 66.7994 555.339 70.8012 555.339H83.493V598.199Z" fill="#3B719A"/>
<path d="M223.716 590.596C223.717 590.213 223.648 589.823 223.496 589.438C223.648 589.823 223.717 590.213 223.716 590.596Z" fill="#4A697F"/>
<path d="M191.582 593.859C199.939 592.908 205.056 589.797 208.183 586.228H222.309V583.132H210.385C211.54 581.106 212.202 579.086 212.579 577.357H222.309V578.115C222.309 578.408 222.309 578.699 222.309 578.989C222.309 583.052 222.347 586.693 223.465 589.361C223.476 589.387 223.486 589.412 223.496 589.438C223.648 589.823 223.717 590.213 223.716 590.596C223.71 592.312 222.266 593.838 220.397 593.838L191.582 593.859Z" fill="#CAEDEF"/>
<path d="M222.309 574.263H213.019C213.095 573.129 213.042 572.438 213.042 572.438C213.102 572.227 212.134 571.455 210.623 570.387H222.309V567.29H206.046C203.285 565.464 200.266 563.498 198.129 562.017C212.114 561.063 221.819 560.56 222.562 560.52C223.271 561.111 223.71 562.004 223.712 562.958C223.712 563.359 223.634 563.773 223.465 564.178C223.4 564.335 223.337 564.494 223.279 564.657C222.366 567.21 222.312 570.553 222.309 574.263Z" fill="#CAEDEF"/>
<path d="M220.397 559.702L195.268 559.683C195.268 559.682 195.269 559.682 195.269 559.681L220.397 559.702Z" fill="#5799B5"/>
<path d="M198.129 562.017C196.364 560.794 195.198 559.9 195.268 559.683L220.397 559.702C221.238 559.702 221.995 560.016 222.562 560.52C221.819 560.56 212.114 561.063 198.129 562.017Z" fill="#AEE4E9"/>
<path d="M212.579 577.357H86.5742C88.7068 576.276 91.7292 575.244 95.4449 574.263H213.019C212.964 575.091 212.84 576.154 212.579 577.357ZM222.309 574.551C222.309 574.454 222.309 574.359 222.309 574.263C222.309 574.359 222.309 574.454 222.309 574.551Z" fill="#CAEDEF"/>
<path d="M86.5742 577.357H83.7388V574.263H95.4449C91.7292 575.244 88.7068 576.276 86.5742 577.357Z" fill="#AEE4E9"/>
<path d="M222.309 577.357H212.579C212.84 576.154 212.964 575.091 213.019 574.263H222.309C222.309 574.359 222.309 574.454 222.309 574.551C222.309 574.841 222.309 575.132 222.309 575.426V577.357Z" fill="#AEE4E9"/>
<path d="M210.623 570.387H114.967C122.115 569.26 130.02 568.228 138.208 567.29H206.046C207.761 568.425 209.376 569.507 210.623 570.387Z" fill="#CAEDEF"/>
<path d="M114.967 570.387H83.7388V567.29H138.208C130.02 568.228 122.115 569.26 114.967 570.387Z" fill="#AEE4E9"/>
<path d="M222.309 570.387H210.623C209.376 569.507 207.761 568.425 206.046 567.29H222.309V570.387Z" fill="#AEE4E9"/>
<path d="M208.183 586.228H83.7388V583.132H210.385C209.791 584.175 209.067 585.22 208.183 586.228Z" fill="#CAEDEF"/>
<path d="M222.309 586.228H208.183C209.067 585.22 209.791 584.175 210.385 583.132H222.309V586.228Z" fill="#AEE4E9"/>
<path d="M177.675 587.53L170.308 580.178L162.94 587.53V567.29H177.675V587.53Z" fill="#E72B61"/>
<path d="M241.975 598.044V602.416C234.075 603.32 232.142 610.006 232.142 618.14V620.83C232.142 628.965 234.075 635.651 241.975 636.555V640.906H90.9309C84.7331 640.906 79.7111 635.882 79.7111 629.682V609.289C79.7111 603.09 84.7331 598.044 90.9309 598.044H241.975Z" fill="#E72B61"/>
<path d="M239.621 632.078C240.526 634.221 238.866 636.555 236.554 636.555L92.2117 636.659V602.312L236.554 602.417C237.395 602.417 238.152 602.731 238.718 603.237C239.727 604.078 240.19 605.527 239.621 606.895C238.424 609.754 238.466 613.726 238.466 618.14V620.83C238.466 625.245 238.424 629.219 239.621 632.078Z" fill="white"/>
<path d="M99.6496 622.388V602.317L211.425 602.399C211.356 602.616 212.522 603.51 214.286 604.734C197.712 605.864 175.136 607.629 154.363 610.007H99.8958V613.103H131.119C123.581 614.292 116.886 615.585 111.598 616.979H99.8958V620.075H102.729C101.257 620.821 100.211 621.592 99.6501 622.386C99.6501 622.386 99.6496 622.386 99.6496 622.388Z" fill="#CAEDEF"/>
<path d="M99.6496 640.914H86.9582C82.9555 640.914 79.7122 637.668 79.7122 633.665V605.304C79.7122 601.3 82.9555 598.054 86.9582 598.054H99.6496V640.914Z" fill="#E72B61"/>
<path d="M207.739 636.576C207.741 636.576 207.742 636.576 207.743 636.575L236.554 636.555C237.4 636.555 238.158 636.242 238.736 635.742C238.158 636.242 237.4 636.555 236.554 636.555L207.739 636.576Z" fill="#C36493"/>
<path d="M207.743 636.575C216.099 635.623 221.212 632.512 224.339 628.945H238.466V625.849H226.542C227.697 623.822 228.359 621.803 228.734 620.075H238.466V620.831C238.466 621.124 238.466 621.415 238.466 621.704C238.466 625.768 238.504 629.409 239.621 632.078C239.795 632.488 239.874 632.905 239.872 633.312C239.87 634.252 239.434 635.135 238.736 635.742C238.158 636.242 237.4 636.555 236.554 636.555L207.743 636.575Z" fill="#CAEDEF"/>
<path d="M238.466 616.979H229.176C229.252 615.845 229.199 615.156 229.199 615.156C229.259 614.943 228.291 614.171 226.78 613.103H238.466V610.007H222.202C219.441 608.18 216.424 606.215 214.286 604.734C228.265 603.778 237.975 603.277 238.718 603.237C239.428 603.829 239.867 604.72 239.868 605.674C239.868 606.076 239.791 606.489 239.621 606.895C238.53 609.501 238.469 613.031 238.466 616.979Z" fill="#CAEDEF"/>
<path d="M236.554 602.417L211.425 602.399C211.425 602.397 211.426 602.396 211.426 602.395L236.554 602.417Z" fill="#C36493"/>
<path d="M214.286 604.734C212.522 603.51 211.356 602.616 211.425 602.399L236.554 602.416C237.395 602.416 238.152 602.731 238.718 603.237C237.975 603.277 228.265 603.778 214.286 604.734Z" fill="#AEE4E9"/>
<path d="M228.734 620.075H102.729C104.861 618.992 107.882 617.96 111.598 616.979H229.176C229.121 617.807 228.997 618.87 228.734 620.075Z" fill="#CAEDEF"/>
<path d="M102.729 620.075H99.8959V616.979H111.598C107.882 617.96 104.861 618.992 102.729 620.075Z" fill="#AEE4E9"/>
<path d="M238.466 620.075H228.734C228.997 618.87 229.121 617.807 229.176 616.979H238.466C238.466 617.075 238.466 617.17 238.466 617.267C238.466 617.556 238.466 617.847 238.466 618.141V620.075Z" fill="#AEE4E9"/>
<path d="M226.78 613.103H131.119C138.267 611.977 146.174 610.944 154.363 610.007H222.202C223.918 611.141 225.533 612.223 226.78 613.103Z" fill="#CAEDEF"/>
<path d="M131.119 613.103H99.8959V610.007H154.363C146.174 610.944 138.267 611.977 131.119 613.103Z" fill="#AEE4E9"/>
<path d="M238.466 613.103H226.78C225.533 612.223 223.918 611.141 222.202 610.007H238.466V613.103Z" fill="#AEE4E9"/>
<path d="M224.339 628.945H99.8959V625.849H226.542C225.948 626.891 225.224 627.935 224.339 628.945Z" fill="#CAEDEF"/>
<path d="M238.466 628.945H224.339C225.223 627.935 225.948 626.891 226.541 625.849H238.466V628.945Z" fill="#AEE4E9"/>
<path d="M223.309 632.94L215.524 625.172L207.739 632.94V611.554H223.309V632.94Z" fill="#E72B61"/>
<path d="M973.405 659.528V662.661C973.405 672.24 965.635 679.999 956.061 679.999H69.1835C61.1164 679.999 54.3359 674.491 52.3966 667.044L52.3829 667.002C52.0307 665.605 51.8405 664.154 51.8405 662.661V659.528C51.8405 649.948 59.5973 642.188 69.1835 642.188H956.061C965.635 642.188 973.405 649.948 973.405 659.528Z" fill="#3C5282"/>
<path d="M956.061 679.999H69.1835C61.1164 679.999 54.3359 674.491 52.3966 667.044L52.3829 667.002C52.0174 664.222 51.8405 662.661 51.8405 662.661C144.571 665.894 234.234 667.211 318.626 667.211C686.832 667.211 956.061 642.188 956.061 642.188C965.635 642.188 973.405 649.948 973.405 659.528V662.661C973.405 669.583 969.347 675.555 963.484 678.336C961.233 679.403 958.716 679.999 956.061 679.999Z" fill="#2D3A5D"/>
<path d="M927.904 195.016C921.723 195.016 916.713 190.005 916.713 183.82C916.713 177.636 921.723 172.623 927.904 172.623C934.086 172.623 939.095 177.636 939.095 183.82C939.095 190.005 934.086 195.016 927.904 195.016ZM951.288 184.144L951.302 183.82L951.288 183.509C952.91 182.762 954.547 181.9 956.156 180.856C957.877 179.67 959.628 178.3 961.251 176.733L960.898 175.349C960.559 173.782 959.953 172.272 959.401 170.761C959.092 170.027 958.725 169.306 958.372 168.586C958.047 167.837 957.652 167.146 957.215 166.468L956.48 165.254C954.265 165.267 952.022 165.55 949.974 165.932C948.127 166.312 946.335 166.863 944.67 167.499L944.218 167.047C944.839 165.366 945.403 163.588 945.771 161.739C946.165 159.692 946.447 157.446 946.461 155.229L945.249 154.496C944.571 154.057 943.864 153.663 943.131 153.337C942.411 152.984 941.692 152.618 940.943 152.307C939.434 151.756 937.937 151.149 936.371 150.811L934.989 150.457C933.423 152.081 932.053 153.817 930.867 155.554C929.824 157.151 928.963 158.788 928.215 160.426L927.904 160.397L927.58 160.426C926.846 158.788 925.97 157.151 924.926 155.554C923.755 153.817 922.373 152.081 920.82 150.457L919.437 150.811C917.857 151.149 916.36 151.756 914.851 152.307C914.118 152.618 913.398 152.984 912.664 153.337C911.93 153.663 911.239 154.057 910.546 154.496L909.334 155.229C909.361 157.446 909.643 159.692 910.024 161.739C910.405 163.588 910.955 165.366 911.591 167.047C911.435 167.202 911.279 167.343 911.14 167.499C909.46 166.863 907.682 166.312 905.834 165.932C903.788 165.55 901.53 165.267 899.328 165.254L898.579 166.468C898.156 167.146 897.76 167.837 897.423 168.586C897.084 169.306 896.717 170.027 896.406 170.761C895.841 172.272 895.249 173.782 894.911 175.349L894.557 176.733C896.18 178.3 897.917 179.67 899.652 180.856C901.246 181.9 902.884 182.762 904.506 183.509L904.493 183.82L904.506 184.144C902.884 184.878 901.246 185.754 899.652 186.8C897.917 187.971 896.18 189.355 894.557 190.908L894.911 192.292C895.249 193.859 895.841 195.369 896.406 196.88C896.717 197.614 897.084 198.335 897.423 199.069C897.76 199.803 898.156 200.495 898.579 201.173L899.328 202.387C901.53 202.374 903.788 202.09 905.834 201.709C907.682 201.328 909.46 200.777 911.14 200.142C911.279 200.296 911.435 200.452 911.591 200.594C910.955 202.273 910.405 204.053 910.024 205.902C909.643 207.949 909.361 210.208 909.334 212.411L910.546 213.159C911.239 213.582 911.93 213.978 912.664 214.303C913.398 214.655 914.118 215.023 914.851 215.334C916.36 215.898 917.857 216.491 919.437 216.83L920.82 217.183C922.373 215.559 923.755 213.822 924.926 212.086C925.97 210.49 926.846 208.853 927.58 207.215L927.904 207.244L928.215 207.215C928.963 208.853 929.824 210.49 930.867 212.086C932.053 213.822 933.423 215.559 934.989 217.183L936.371 216.83C937.937 216.491 939.434 215.898 940.943 215.334C941.692 215.023 942.411 214.655 943.131 214.303C943.864 213.978 944.571 213.582 945.249 213.159L946.461 212.411C946.447 210.208 946.165 207.949 945.771 205.902C945.403 204.053 944.839 202.273 944.218 200.594C944.373 200.452 944.515 200.296 944.67 200.142C946.335 200.777 948.127 201.328 949.974 201.709C952.022 202.09 954.265 202.374 956.48 202.387L957.215 201.173C957.652 200.495 958.047 199.803 958.372 199.069C958.725 198.335 959.092 197.614 959.401 196.88C959.953 195.369 960.559 193.859 960.898 192.292L961.251 190.908C959.628 189.355 957.877 187.971 956.156 186.8C954.547 185.754 952.91 184.878 951.288 184.144Z" fill="#F78F45"/>
<path d="M895.825 200.423H890.401V201.779H895.825V200.423ZM884.977 200.423H879.553V201.779H884.977V200.423ZM874.129 200.423H868.705V201.779H874.129V200.423ZM863.281 200.423H857.857V201.779H863.281V200.423ZM852.433 200.423H847.009V201.779H852.433V200.423ZM841.585 200.423H836.161V201.779H841.585V200.423ZM830.737 200.423H825.313V201.779H830.737V200.423ZM819.634 206.951H820.99V201.524H819.634V206.951ZM819.634 217.804H820.99V212.377H819.634V217.804ZM819.634 228.657H820.99V223.231H819.634V228.657ZM819.634 239.511H820.99V234.084H819.634V239.511ZM819.634 250.364H820.99V244.937H819.634V250.364ZM819.634 261.217H820.99V255.791H819.634V261.217ZM819.634 272.071H820.99V266.644H819.634V272.071ZM822.307 276.181H827.731V274.825H822.307V276.181ZM833.155 276.181H838.579V274.825H833.155V276.181Z" fill="#F36241"/>
<path d="M884.592 322.749H843.078V315.325H884.592V322.749Z" fill="white"/>
<path d="M906.902 336.482H843.078V329.059H906.902V336.482Z" fill="white"/>
<path d="M864.816 350.216H843.078V342.792H864.816V350.216Z" fill="white"/>
<path d="M895.427 350.216H873.688V342.792H895.427V350.216Z" fill="#F78F45"/>
<path d="M934.421 350.216H903.204V342.792H934.421V350.216Z" fill="#F78F45"/>
<path d="M934.421 336.482H915.465V329.059H934.421V336.482Z" fill="#F78F45"/>
<path d="M934.421 322.749H892.907V315.325H934.421V322.749Z" fill="#F78F45"/>
<path d="M948.244 349.99H949.627V267.254H948.244V349.99Z" fill="white"/>
<path d="M886.41 277.927H843.722V270.293H886.41V277.927Z" fill="white"/>
<path d="M909.353 292.05H843.722V284.416H909.353V292.05Z" fill="white"/>
<path d="M866.076 306.172H843.722V298.538H866.076V306.172Z" fill="white"/>
<path d="M897.553 306.172H875.199V298.538H897.553V306.172Z" fill="#F78F45"/>
<path d="M937.65 306.172H905.552V298.538H937.65V306.172Z" fill="#F78F45"/>
<path d="M937.65 292.05H918.157V284.416H937.65V292.05Z" fill="#F78F45"/>
<path d="M937.65 277.927H894.961V270.293H937.65V277.927Z" fill="#F78F45"/>
<path d="M790.148 369.548H667.307V128.034H790.148V369.548Z" fill="#3F436D"/>
<path d="M773.529 189.2H681.301V179.4H773.529V189.2Z" fill="white"/>
<path d="M742.342 210.901H681.301V201.101H742.342V210.901Z" fill="white"/>
<path d="M773.529 210.901H751.408V201.101H773.529V210.901Z" fill="#F78F45"/>
<path d="M773.529 232.603H716.376V222.802H773.529V232.603Z" fill="#F78F45"/>
<path d="M708.067 232.603H681.301V222.802H708.067V232.603Z" fill="white"/>
<path d="M730.051 254.304H681.301V244.503H730.051V254.304Z" fill="white"/>
<path d="M773.529 254.304H737.56V244.503H773.529V254.304Z" fill="#F78F45"/>
<path d="M773.529 276.005H708.067V266.204H773.529V276.005Z" fill="#F78F45"/>
<path d="M701.089 276.005H681.301V266.204H701.089V276.005Z" fill="white"/>
<path d="M720.877 297.706H681.301V287.906H720.877V297.706Z" fill="white"/>
<path d="M773.529 297.706H727.414V287.906H773.529V297.706Z" fill="#F78F45"/>
<path d="M770.805 345.743V348.5L760.71 352.34V349.688L767.773 347.12L760.71 344.533V341.902L770.805 345.743Z" fill="#F78F45"/>
<path d="M742.105 341.902V344.533L735.043 347.12L742.105 349.688V352.34L732.011 348.5V345.743L742.105 341.902Z" fill="#F78F45"/>
<path d="M754.039 334.466H757.197L749.7 355.876H746.543L754.039 334.466Z" fill="#F78F45"/>
<path d="M724.455 157.263V160.877L711.225 165.91V162.435L720.479 159.07L711.225 155.677V152.228L724.455 157.263Z" fill="#F78F45"/>
<path d="M700.126 152.228V155.677L690.871 159.07L700.126 162.435V165.91L686.898 160.877V157.263L700.126 152.228Z" fill="#F78F45"/>
<path d="M681.321 90.1597H686.185V107.358H681.321V90.1597ZM674.687 107.358H669.822V90.1597H674.687V107.358ZM681.665 100.651H674.343V96.6213H681.665V100.651ZM693.277 107.358V94.017H687.995V90.1597H703.4V94.017H698.142V107.358H693.277ZM705.212 107.358V90.1597H709.217L716.342 101.854H714.229L721.157 90.1597H725.162L725.211 107.358H720.74L720.691 96.9653H721.452L716.268 105.663H714.106L708.775 96.9653H709.708V107.358H705.212ZM728.653 107.358V90.1597H733.518V103.501H741.724V107.358H728.653Z" fill="white"/>
<path d="M85.9682 417.016C75.1913 421.826 62.5132 416.966 57.7068 406.183C54.8475 399.771 55.409 392.685 58.6014 386.988L58.6725 386.856C60.8483 383.027 64.2135 379.836 68.5352 377.908C69.3435 377.547 70.1677 377.24 70.9961 376.991L71.2567 376.908C75.5377 375.655 79.9781 375.812 84.0148 377.162L84.064 377.175C87.5223 378.339 90.6778 380.381 93.1731 383.157C94.6313 384.774 95.8634 386.648 96.7967 388.741C97.3761 390.043 97.8137 391.371 98.1172 392.709C100.343 402.47 95.4438 412.789 85.9682 417.016ZM98.8768 375.454C96.3269 372.952 93.3818 370.929 90.1893 369.461L90.0145 369.38C85.5149 367.34 80.5464 366.374 75.5281 366.65C72.0964 366.832 68.6444 367.605 65.3084 369.007C65.1018 369.095 64.8921 369.185 64.687 369.275C58.7053 371.944 53.9863 376.296 50.8463 381.532C45.8239 389.882 44.8174 400.473 49.0788 410.032C56.0065 425.573 74.2829 432.58 89.8159 425.648C104.055 419.296 111.125 403.404 106.869 388.829C106.484 387.501 106.001 386.186 105.424 384.891C103.803 381.255 101.562 378.086 98.8768 375.454Z" fill="#5C5E94"/>
<path d="M90.1893 369.461C93.3817 370.929 96.3268 372.952 98.8768 375.454C101.562 378.086 103.803 381.255 105.424 384.891C106.001 386.186 106.484 387.501 106.869 388.829L98.1172 392.709C97.8137 391.372 97.3761 390.043 96.7967 388.741C95.8634 386.648 94.6313 384.774 93.1731 383.157C90.6777 380.381 87.5223 378.339 84.064 377.175L84.0148 377.162L90.0145 369.38" fill="#F78F45"/>
<path d="M90.1893 369.461L84.064 377.175L90.1893 369.461Z" fill="#F78F45"/>
<path d="M84.064 377.175L84.0148 377.162C79.9781 375.812 75.5377 375.655 71.2567 376.908L70.9961 376.991L65.3083 369.007C68.6444 367.605 72.0964 366.832 75.5281 366.65C80.5464 366.374 85.5149 367.34 90.0145 369.38" fill="#D82B62"/>
<path d="M79.0336 431.036H80.3896V428.323H79.0336V431.036Z" fill="#F36241"/>
<path d="M79.0336 441.42H80.3896V436.228H79.0336V441.42ZM79.0336 451.805H80.3896V446.614H79.0336V451.805ZM79.0336 462.191H80.3896V456.999H79.0336V462.191ZM79.0336 472.576H80.3896V467.382H79.0336V472.576Z" fill="#F36241"/>
<path d="M79.0336 477.769V481.161H82.4236V479.804H80.3896V477.769H79.0336Z" fill="#F36241"/>
<path d="M88.0033 481.161H93.5841V479.804H88.0033V481.161ZM99.1649 481.161H104.746V479.804H99.1649V481.161ZM110.326 481.161H115.907V479.804H110.326V481.161ZM121.488 481.161H127.069V479.804H121.488V481.161ZM132.65 481.161H138.23V479.804H132.65V481.161ZM143.811 481.161H149.392V479.804H143.811V481.161ZM154.973 481.161H160.553V479.804H154.973V481.161Z" fill="#F36241"/>
<path d="M166.134 481.161H169.524V477.769H168.168V479.804H166.134V481.161Z" fill="#F36241"/>
<path d="M169.524 467.201H168.168V472.485H169.524V467.201ZM169.524 456.632H168.168V461.916H169.524V456.632ZM169.524 446.065H168.168V451.349H169.524V446.065ZM169.524 435.497H168.168V440.782H169.524V435.497Z" fill="#F36241"/>
<path d="M168.168 430.213H169.524V427.499H168.168V430.213Z" fill="#F36241"/>
<path d="M397.816 424.931H136.316V113.01H397.816V424.931Z" fill="#3F436D"/>
<path d="M397.816 137.404H136.316V97.8154H397.816V137.404Z" fill="#5C5E94"/>
<path d="M367.557 403.476V406.045L358.154 409.623V407.152L364.733 404.76L358.154 402.348V399.898L367.557 403.476Z" fill="#F78F45"/>
<path d="M340.821 399.898V402.348L334.243 404.76L340.821 407.152V409.623L331.417 406.045V403.476L340.821 399.898Z" fill="#F78F45"/>
<path d="M344.882 412.701L351.751 393.094H355.269L348.4 412.701H344.882Z" fill="#F78F45"/>
<path d="M198.281 162.641V165.847L186.554 170.307V167.226L194.758 164.244L186.554 161.237V158.18L198.281 162.641Z" fill="#F78F45"/>
<path d="M176.717 158.18V161.237L168.511 164.244L176.717 167.226V170.307L164.989 165.847V162.641L176.717 158.18Z" fill="#F78F45"/>
<path d="M156.668 125.22L152.478 112.299H156.243L159.769 123.485H157.868L161.578 112.299H164.937L168.444 123.485H166.617L170.253 112.299H173.742L169.552 125.22H165.639L162.648 115.714H163.701L160.581 125.22H156.668ZM178.411 117.301H184.41V120.033H178.411V117.301ZM178.669 122.396H185.425V125.22H175.051V112.299H185.185V115.123H178.669V122.396ZM187.453 125.22V112.299H194.061C195.759 112.299 197.027 112.613 197.864 113.241C198.7 113.856 199.119 114.668 199.119 115.677C199.119 116.342 198.94 116.926 198.584 117.431C198.239 117.923 197.747 118.317 197.107 118.612C196.479 118.895 195.729 119.037 194.855 119.037L195.224 118.151C196.135 118.151 196.928 118.292 197.605 118.575C198.282 118.846 198.805 119.246 199.174 119.775C199.556 120.292 199.746 120.925 199.746 121.676C199.746 122.796 199.291 123.67 198.381 124.297C197.482 124.912 196.166 125.22 194.43 125.22H187.453ZM191.071 122.581H194.135C194.763 122.581 195.236 122.476 195.556 122.267C195.889 122.045 196.055 121.713 196.055 121.27C196.055 120.827 195.889 120.501 195.556 120.292C195.236 120.07 194.763 119.959 194.135 119.959H190.813V117.431H193.581C194.197 117.431 194.658 117.326 194.966 117.117C195.273 116.908 195.427 116.594 195.427 116.175C195.427 115.757 195.273 115.449 194.966 115.253C194.658 115.043 194.197 114.939 193.581 114.939H191.071V122.581ZM207.011 125.22V112.299H213.121C214.548 112.299 215.803 112.564 216.886 113.093C217.969 113.622 218.812 114.367 219.415 115.326C220.03 116.286 220.338 117.431 220.338 118.76C220.338 120.076 220.03 121.221 219.415 122.193C218.812 123.153 217.969 123.897 216.886 124.426C215.803 124.956 214.548 125.22 213.121 125.22H207.011ZM210.666 122.304H212.973C213.712 122.304 214.351 122.168 214.893 121.898C215.447 121.615 215.877 121.208 216.185 120.679C216.493 120.138 216.646 119.498 216.646 118.76C216.646 118.009 216.493 117.369 216.185 116.84C215.877 116.311 215.447 115.911 214.893 115.64C214.351 115.357 213.712 115.216 212.973 115.216H210.666V122.304ZM225.62 117.301H231.619V120.033H225.62V117.301ZM225.879 122.396H232.635V125.22H222.261V112.299H232.395V115.123H225.879V122.396ZM238.451 125.22L232.932 112.299H236.882L241.534 123.485H239.208L243.97 112.299H247.588L242.05 125.22H238.451ZM251.704 117.301H257.703V120.033H251.704V117.301ZM251.962 122.396H258.718V125.22H248.344V112.299H258.478V115.123H251.962V122.396ZM260.746 125.22V112.299H264.401V122.322H270.566V125.22H260.746ZM278.33 125.479C277.296 125.479 276.342 125.312 275.469 124.98C274.595 124.648 273.832 124.18 273.18 123.577C272.54 122.962 272.041 122.248 271.685 121.436C271.328 120.624 271.149 119.732 271.149 118.76C271.149 117.788 271.328 116.895 271.685 116.083C272.041 115.271 272.54 114.563 273.18 113.96C273.832 113.345 274.595 112.871 275.469 112.539C276.342 112.207 277.296 112.041 278.33 112.041C279.376 112.041 280.329 112.207 281.191 112.539C282.064 112.871 282.821 113.345 283.461 113.96C284.101 114.563 284.599 115.271 284.956 116.083C285.325 116.895 285.51 117.788 285.51 118.76C285.51 119.732 285.325 120.63 284.956 121.455C284.599 122.267 284.101 122.974 283.461 123.577C282.821 124.18 282.064 124.648 281.191 124.98C280.329 125.312 279.376 125.479 278.33 125.479ZM278.33 122.451C278.822 122.451 279.277 122.365 279.696 122.193C280.126 122.021 280.495 121.775 280.803 121.455C281.123 121.122 281.369 120.729 281.541 120.273C281.726 119.818 281.818 119.313 281.818 118.76C281.818 118.194 281.726 117.689 281.541 117.246C281.369 116.791 281.123 116.403 280.803 116.083C280.495 115.751 280.126 115.499 279.696 115.326C279.277 115.154 278.822 115.068 278.33 115.068C277.837 115.068 277.376 115.154 276.945 115.326C276.527 115.499 276.158 115.751 275.838 116.083C275.53 116.403 275.284 116.791 275.099 117.246C274.927 117.689 274.841 118.194 274.841 118.76C274.841 119.313 274.927 119.818 275.099 120.273C275.284 120.729 275.53 121.122 275.838 121.455C276.158 121.775 276.527 122.021 276.945 122.193C277.376 122.365 277.837 122.451 278.33 122.451ZM287.424 125.22V112.299H293.331C294.512 112.299 295.527 112.49 296.376 112.871C297.238 113.253 297.902 113.807 298.37 114.533C298.838 115.246 299.071 116.095 299.071 117.08C299.071 118.052 298.838 118.895 298.37 119.609C297.902 120.322 297.238 120.876 296.376 121.27C295.527 121.651 294.512 121.842 293.331 121.842H289.455L291.079 120.255V125.22H287.424ZM291.079 120.642L289.455 118.963H293.109C293.872 118.963 294.438 118.797 294.807 118.464C295.189 118.132 295.38 117.671 295.38 117.08C295.38 116.477 295.189 116.009 294.807 115.677C294.438 115.345 293.872 115.179 293.109 115.179H289.455L291.079 113.499V120.642ZM300.853 125.22V112.299H304.508V125.22H300.853ZM307.108 125.22V112.299H310.117L317.242 120.901H315.821V112.299H319.402V125.22H316.393L309.268 116.618H310.689V125.22H307.108ZM328.44 125.479C327.419 125.479 326.471 125.319 325.597 124.999C324.724 124.666 323.967 124.199 323.327 123.596C322.699 122.993 322.207 122.285 321.85 121.473C321.493 120.649 321.315 119.744 321.315 118.76C321.315 117.775 321.493 116.877 321.85 116.065C322.207 115.24 322.706 114.527 323.345 113.924C323.985 113.321 324.742 112.859 325.616 112.539C326.502 112.207 327.468 112.041 328.514 112.041C329.732 112.041 330.821 112.244 331.781 112.65C332.741 113.056 333.535 113.641 334.162 114.403L331.836 116.508C331.393 116.028 330.913 115.671 330.397 115.437C329.892 115.191 329.326 115.068 328.698 115.068C328.145 115.068 327.64 115.154 327.185 115.326C326.73 115.499 326.342 115.751 326.022 116.083C325.702 116.403 325.45 116.791 325.265 117.246C325.093 117.689 325.007 118.194 325.007 118.76C325.007 119.301 325.093 119.799 325.265 120.255C325.45 120.71 325.702 121.104 326.022 121.436C326.342 121.756 326.723 122.008 327.166 122.193C327.622 122.365 328.12 122.451 328.661 122.451C329.203 122.451 329.732 122.365 330.249 122.193C330.766 122.008 331.289 121.701 331.818 121.27L333.867 123.836C333.128 124.365 332.273 124.771 331.301 125.054C330.329 125.337 329.375 125.479 328.44 125.479ZM330.637 123.356V118.483H333.867V123.836L330.637 123.356Z" fill="white"/>
<path d="M258.393 203.415H181.525V189.332H258.393V203.415Z" fill="#37BDCF"/>
<path d="M307.657 203.415H269.223V189.332H307.657V203.415Z" fill="#F78F45"/>
<path d="M369.445 203.415H316.509V189.332H369.445V203.415Z" fill="white"/>
<path d="M217.401 228.56H181.525V214.476H217.401V228.56Z" fill="#37BDCF"/>
<path d="M288.44 228.56H227.163V214.476H288.44V228.56Z" fill="#F78F45"/>
<path d="M369.445 228.56H298.426V214.476H369.445V228.56Z" fill="white"/>
<path d="M228.749 253.704H181.525V239.621H228.749V253.704Z" fill="#37BDCF"/>
<path d="M325.27 253.704H236.436V239.621H325.27V253.704Z" fill="#F78F45"/>
<path d="M369.445 253.704H334.79V239.621H369.445V253.704Z" fill="white"/>
<path d="M241.074 278.849H181.525V264.765H241.074V278.849Z" fill="#37BDCF"/>
<path d="M307.657 278.849H249.859V264.765H307.657V278.849Z" fill="#F78F45"/>
<path d="M369.445 278.849H316.509V264.765H369.445V278.849Z" fill="white"/>
<path d="M207.638 303.993H181.525V289.909H207.638V303.993Z" fill="#37BDCF"/>
<path d="M268.163 303.993H216.424V289.909H268.163V303.993Z" fill="#F78F45"/>
<path d="M369.445 303.993H276.217V289.909H369.445V303.993Z" fill="white"/>
<path d="M256.204 329.137H181.525V315.054H256.204V329.137Z" fill="#37BDCF"/>
<path d="M288.44 329.137H265.479V315.054H288.44V329.137Z" fill="#F78F45"/>
<path d="M369.445 329.137H298.426V315.054H369.445V329.137Z" fill="white"/>
<path d="M278.758 354.283H181.525V340.198H278.758V354.283Z" fill="#37BDCF"/>
<path d="M326.735 354.283H286.955V340.198H326.735V354.283Z" fill="#F78F45"/>
<path d="M369.445 354.283H334.79V340.198H369.445V354.283Z" fill="white"/>
<path d="M211.299 379.426H181.525V365.343H211.299V379.426Z" fill="#37BDCF"/>
<path d="M256.204 379.426H219.958V365.343H256.204V379.426Z" fill="#F78F45"/>
<path d="M369.445 379.426H265.479V365.343H369.445V379.426Z" fill="white"/>
<path d="M382.587 379.426H379.723V189.332H382.587V379.426Z" fill="white"/>
<path d="M164.391 196.374C164.391 200.263 161.239 203.415 157.353 203.415C153.465 203.415 150.314 200.263 150.314 196.374C150.314 192.485 153.465 189.332 157.353 189.332C161.239 189.332 164.391 192.485 164.391 196.374Z" fill="white"/>
<path d="M164.391 221.517C164.391 225.407 161.239 228.56 157.353 228.56C153.465 228.56 150.314 225.407 150.314 221.517C150.314 217.629 153.465 214.476 157.353 214.476C161.239 214.476 164.391 217.629 164.391 221.517Z" fill="white"/>
<path d="M164.391 246.663C164.391 250.551 161.239 253.704 157.353 253.704C153.465 253.704 150.314 250.551 150.314 246.663C150.314 242.773 153.465 239.621 157.353 239.621C161.239 239.621 164.391 242.773 164.391 246.663Z" fill="white"/>
<path d="M164.391 271.807C164.391 275.696 161.239 278.849 157.353 278.849C153.465 278.849 150.314 275.696 150.314 271.807C150.314 267.917 153.465 264.765 157.353 264.765C161.239 264.765 164.391 267.917 164.391 271.807Z" fill="white"/>
<path d="M164.391 296.95C164.391 300.84 161.239 303.993 157.353 303.993C153.465 303.993 150.314 300.84 150.314 296.95C150.314 293.062 153.465 289.909 157.353 289.909C161.239 289.909 164.391 293.062 164.391 296.95Z" fill="white"/>
<path d="M164.391 322.096C164.391 325.984 161.239 329.137 157.353 329.137C153.465 329.137 150.314 325.984 150.314 322.096C150.314 318.207 153.465 315.054 157.353 315.054C161.239 315.054 164.391 318.207 164.391 322.096Z" fill="white"/>
<path d="M164.391 347.239C164.391 351.129 161.239 354.283 157.353 354.283C153.465 354.283 150.314 351.129 150.314 347.239C150.314 343.351 153.465 340.198 157.353 340.198C161.239 340.198 164.391 343.351 164.391 347.239Z" fill="white"/>
<path d="M164.391 372.384C164.391 376.275 161.239 379.426 157.353 379.426C153.465 379.426 150.314 376.275 150.314 372.384C150.314 368.495 153.465 365.343 157.353 365.343C161.239 365.343 164.391 368.495 164.391 372.384Z" fill="white"/>
<path d="M386.17 119.793C386.17 123.76 382.956 126.976 378.991 126.976C375.025 126.976 371.811 123.76 371.811 119.793C371.811 115.827 375.025 112.611 378.991 112.611C382.956 112.611 386.17 115.827 386.17 119.793Z" fill="#D82B62"/>
<path d="M368.424 119.648C368.424 123.646 365.186 126.886 361.191 126.886C357.195 126.886 353.957 123.646 353.957 119.648C353.957 115.653 357.195 112.412 361.191 112.412C365.186 112.412 368.424 115.653 368.424 119.648Z" fill="white"/>
<path d="M457.954 156.788H432.621V149.687H457.954V156.788Z" fill="#3C5282"/>
<path d="M510.12 144.146H432.621V137.045H510.12V144.146Z" fill="#5C5E94"/>
<path d="M476.718 160.854H478.074V158.141H476.718V160.854Z" fill="#F36241"/>
<path d="M476.718 170.014H478.074V165.435H476.718V170.014ZM476.718 179.176H478.074V174.595H476.718V179.176Z" fill="#F36241"/>
<path d="M476.718 183.756V187.148H480.108V185.791H478.074V183.756H476.718Z" fill="#F36241"/>
<path d="M485.273 187.148H490.438V185.791H485.273V187.148ZM495.603 187.148H500.768V185.791H495.603V187.148ZM505.933 187.148H511.1V185.791H505.933V187.148ZM516.264 187.148H521.429V185.791H516.264V187.148ZM526.594 187.148H531.759V185.791H526.594V187.148ZM536.924 187.148H542.089V185.791H536.924V187.148ZM547.254 187.148H552.419V185.791H547.254V187.148ZM557.584 187.148H562.749V185.791H557.584V187.148Z" fill="#F36241"/>
<path d="M567.914 187.148H571.304V183.756H569.948V185.791H567.914V187.148Z" fill="#F36241"/>
<path d="M569.948 178.252H571.304V172.748H569.948V178.252Z" fill="#F36241"/>
<path d="M569.948 167.244H571.304V164.531H569.948V167.244Z" fill="#F36241"/>
<path d="M442.915 117.637C441.556 117.637 440.295 117.424 439.132 116.998C437.985 116.556 436.986 115.933 436.134 115.131C435.299 114.328 434.644 113.386 434.169 112.305C433.694 111.208 433.456 110.004 433.456 108.694C433.456 107.383 433.694 106.188 434.169 105.107C434.644 104.009 435.299 103.059 436.134 102.257C436.986 101.454 437.985 100.84 439.132 100.414C440.295 99.9716 441.556 99.7505 442.915 99.7505C444.504 99.7505 445.921 100.029 447.166 100.586C448.427 101.143 449.475 101.945 450.311 102.994L447.215 105.794C446.658 105.139 446.044 104.64 445.372 104.296C444.717 103.952 443.98 103.78 443.161 103.78C442.457 103.78 441.81 103.894 441.22 104.124C440.63 104.353 440.123 104.689 439.697 105.131C439.287 105.557 438.96 106.073 438.714 106.679C438.485 107.285 438.37 107.957 438.37 108.694C438.37 109.431 438.485 110.102 438.714 110.708C438.96 111.314 439.287 111.838 439.697 112.281C440.123 112.707 440.63 113.034 441.22 113.263C441.81 113.493 442.457 113.607 443.161 113.607C443.98 113.607 444.717 113.435 445.372 113.091C446.044 112.747 446.658 112.248 447.215 111.593L450.311 114.394C449.475 115.425 448.427 116.228 447.166 116.801C445.921 117.358 444.504 117.637 442.915 117.637ZM458.356 117.637C456.947 117.637 455.587 117.465 454.277 117.121C452.983 116.76 451.927 116.302 451.108 115.745L452.705 112.158C453.475 112.649 454.359 113.059 455.358 113.386C456.374 113.697 457.381 113.853 458.38 113.853C459.052 113.853 459.592 113.796 460.002 113.681C460.411 113.55 460.706 113.386 460.886 113.19C461.083 112.977 461.181 112.731 461.181 112.453C461.181 112.06 461.001 111.748 460.64 111.519C460.28 111.29 459.813 111.101 459.24 110.954C458.667 110.807 458.028 110.659 457.324 110.512C456.636 110.364 455.94 110.176 455.235 109.947C454.547 109.717 453.917 109.422 453.344 109.062C452.77 108.685 452.303 108.202 451.943 107.613C451.583 107.007 451.403 106.245 451.403 105.328C451.403 104.296 451.681 103.362 452.238 102.527C452.811 101.691 453.663 101.02 454.793 100.512C455.923 100.004 457.332 99.7505 459.019 99.7505C460.149 99.7505 461.255 99.8815 462.336 100.144C463.433 100.389 464.408 100.758 465.259 101.249L463.761 104.861C462.942 104.419 462.131 104.091 461.328 103.878C460.526 103.649 459.748 103.534 458.994 103.534C458.323 103.534 457.782 103.608 457.373 103.755C456.963 103.886 456.669 104.066 456.488 104.296C456.308 104.525 456.218 104.787 456.218 105.082C456.218 105.459 456.39 105.762 456.734 105.991C457.094 106.204 457.561 106.384 458.134 106.532C458.724 106.663 459.363 106.802 460.051 106.949C460.755 107.097 461.451 107.285 462.139 107.514C462.844 107.727 463.482 108.022 464.056 108.399C464.629 108.759 465.087 109.242 465.431 109.848C465.792 110.438 465.972 111.183 465.972 112.084C465.972 113.083 465.685 114.009 465.112 114.86C464.555 115.696 463.712 116.367 462.581 116.875C461.468 117.383 460.059 117.637 458.356 117.637ZM474.263 117.637C472.854 117.637 471.495 117.465 470.185 117.121C468.891 116.76 467.834 116.302 467.015 115.745L468.612 112.158C469.382 112.649 470.266 113.059 471.266 113.386C472.281 113.697 473.288 113.853 474.288 113.853C474.959 113.853 475.5 113.796 475.909 113.681C476.319 113.55 476.613 113.386 476.794 113.19C476.99 112.977 477.088 112.731 477.088 112.453C477.088 112.06 476.908 111.748 476.548 111.519C476.188 111.29 475.721 111.101 475.147 110.954C474.574 110.807 473.935 110.659 473.231 110.512C472.543 110.364 471.847 110.176 471.143 109.947C470.455 109.717 469.824 109.422 469.251 109.062C468.678 108.685 468.211 108.202 467.851 107.613C467.49 107.007 467.31 106.245 467.31 105.328C467.31 104.296 467.588 103.362 468.145 102.527C468.719 101.691 469.57 101.02 470.701 100.512C471.831 100.004 473.239 99.7505 474.926 99.7505C476.057 99.7505 477.162 99.8815 478.243 100.144C479.341 100.389 480.315 100.758 481.167 101.249L479.668 104.861C478.849 104.419 478.038 104.091 477.236 103.878C476.433 103.649 475.655 103.534 474.902 103.534C474.23 103.534 473.69 103.608 473.28 103.755C472.871 103.886 472.576 104.066 472.396 104.296C472.216 104.525 472.126 104.787 472.126 105.082C472.126 105.459 472.297 105.762 472.641 105.991C473.002 106.204 473.469 106.384 474.042 106.532C474.632 106.663 475.27 106.802 475.958 106.949C476.663 107.097 477.359 107.285 478.047 107.514C478.751 107.727 479.39 108.022 479.963 108.399C480.536 108.759 480.995 109.242 481.339 109.848C481.699 110.438 481.879 111.183 481.879 112.084C481.879 113.083 481.593 114.009 481.019 114.86C480.463 115.696 479.619 116.367 478.489 116.875C477.375 117.383 475.966 117.637 474.263 117.637Z" fill="white"/>
<path d="M576.676 155.167C569.197 158.499 560.402 155.129 557.072 147.647C556.799 147.035 556.574 146.414 556.386 145.784C555.229 141.869 555.784 137.738 557.693 134.341L557.74 134.246C559.246 131.592 561.579 129.371 564.579 128.035C565.143 127.79 565.707 127.574 566.29 127.404L566.469 127.347C569.441 126.472 572.518 126.586 575.321 127.517L575.349 127.526C577.747 128.336 579.941 129.757 581.67 131.678C582.687 132.797 583.533 134.095 584.182 135.554C584.586 136.457 584.888 137.38 585.103 138.302C585.678 140.824 585.564 143.394 584.86 145.784C583.683 149.822 580.805 153.322 576.676 155.167ZM591.171 135.611C590.907 134.688 590.568 133.776 590.173 132.881C589.045 130.359 587.492 128.157 585.631 126.331C583.862 124.6 581.811 123.197 579.602 122.181L579.478 122.125C576.356 120.704 572.913 120.035 569.433 120.223C567.053 120.355 564.653 120.892 562.34 121.861C562.2 121.927 562.048 121.983 561.907 122.05C557.759 123.904 554.486 126.916 552.314 130.548C549.604 135.045 548.579 140.476 549.641 145.784C549.943 147.317 550.422 148.833 551.08 150.32C555.887 161.105 568.567 165.962 579.337 161.153C585.913 158.215 590.286 152.363 591.604 145.784C592.271 142.481 592.158 138.998 591.171 135.611Z" fill="#5C5E94"/>
<path d="M591.604 145.784H584.86C585.564 143.394 585.678 140.824 585.103 138.302C584.888 137.38 584.586 136.457 584.182 135.554C583.533 134.095 582.687 132.797 581.67 131.678C579.941 129.757 577.747 128.336 575.349 127.526L575.321 127.517C572.518 126.586 569.441 126.472 566.469 127.347L566.29 127.404C565.707 127.574 565.143 127.79 564.579 128.035C561.579 129.371 559.246 131.592 557.74 134.246L557.693 134.341C555.784 137.738 555.229 141.869 556.386 145.784H549.641C548.579 140.476 549.604 135.045 552.314 130.548C554.486 126.916 557.759 123.904 561.907 122.049C562.048 121.983 562.2 121.927 562.34 121.861C564.653 120.892 567.053 120.355 569.433 120.223C572.913 120.035 576.356 120.704 579.478 122.125L579.602 122.181C581.811 123.197 583.862 124.6 585.631 126.331C587.492 128.157 589.045 130.359 590.173 132.881C590.568 133.776 590.907 134.688 591.171 135.611C592.158 138.998 592.271 142.481 591.604 145.784Z" fill="#D82B62"/>
<path d="M510.12 156.788H463.031V149.687H510.12V156.788Z" fill="#5C5E94"/>
<path d="M792.77 451.023H780.135V394.086H792.77V451.023Z" fill="#D82B62"/>
<path d="M775.041 451.023H761.497V419.174H775.041V451.023Z" fill="#5C5E94"/>
<path d="M756.28 451.023H742.735V429.365H756.28V451.023Z" fill="#F36241"/>
<path d="M737.629 442.632H740.341V441.275H737.629V442.632Z" fill="#F36241"/>
<path d="M723.875 442.632H730.751V441.275H723.875V442.632Z" fill="#F36241"/>
<path d="M717 441.275H713.61V444.667H714.966V442.632H717V441.275Z" fill="#F36241"/>
<path d="M713.61 454.816H714.966V449.742H713.61V454.816ZM713.61 464.965H714.966V459.891H713.61V464.965ZM713.61 475.114H714.966V470.04H713.61V475.114ZM713.61 485.263H714.966V480.19H713.61V485.263Z" fill="#F36241"/>
<path d="M713.61 490.339V493.73H717V492.374H714.966V490.339H713.61Z" fill="#F36241"/>
<path d="M721.604 493.73H726.209V492.374H721.604V493.73ZM730.813 493.73H735.419V492.374H730.813V493.73Z" fill="#F36241"/>
<path d="M740.022 493.73H742.734V492.374H740.022V493.73Z" fill="#F36241"/>
<path d="M782.864 496.929H747.024V490.522H782.864V496.929Z" fill="white"/>
<path d="M771.813 508.785H747.024V502.378H771.813V508.785Z" fill="white"/>
<path d="M778.401 520.642H747.024V514.234H778.401V520.642Z" fill="white"/>
<path d="M792.216 520.642H784.892V514.234H792.216V520.642Z" fill="#F78F45"/>
<path d="M825.881 520.642H798.932V514.234H825.881V520.642Z" fill="#F78F45"/>
<path d="M825.881 508.785H779.757V502.378H825.881V508.785Z" fill="#F78F45"/>
<path d="M825.881 496.929H790.042V490.522H825.881V496.929Z" fill="#F78F45"/>
<path d="M845.827 587.66C837 588.325 829.613 586.226 823.44 582.394C798.529 566.971 793.333 523.475 792.974 520.207C793.192 521.211 795.648 526.529 821.539 543.955C823.694 545.41 825.667 546.885 827.468 548.377L827.563 548.448C850.125 567.143 845.827 587.66 845.827 587.66Z" fill="#098B73"/>
<path d="M792.327 520.271C792.335 520.29 798.159 534.59 807.231 549.671C811.768 557.211 817.115 564.947 822.974 571.2C828.835 577.449 835.205 582.236 841.867 583.795L842.174 582.474C835.935 581.027 829.72 576.423 823.962 570.272C815.321 561.053 807.708 548.412 802.276 538.085C799.559 532.923 797.384 528.337 795.889 525.045C795.142 523.398 794.564 522.075 794.175 521.165C793.785 520.254 793.584 519.761 793.583 519.759L792.327 520.271Z" fill="#0B7259"/>
<path d="M842.631 587.782C835.198 587.782 828.852 585.755 823.44 582.393C824.463 579.972 825.234 577.102 825.816 574.072C830.874 578.893 836.267 582.486 841.867 583.795L842.174 582.474C836.701 581.205 831.248 577.507 826.105 572.467C828.002 561.163 827.468 548.377 827.468 548.377L827.563 548.448C829.895 550.382 831.941 552.333 833.734 554.281C834.036 559.349 835.04 563.764 836.466 567.574H836.472C838.914 574.093 842.594 578.839 846.124 582.049C846.144 582.538 846.153 582.997 846.153 583.43C846.155 586.093 845.827 587.66 845.827 587.66C844.739 587.743 843.673 587.782 842.631 587.782Z" fill="#0A7E66"/>
<path d="M841.867 583.795C836.267 582.486 830.874 578.893 825.816 574.072C825.918 573.541 826.014 573.005 826.105 572.467C831.248 577.507 836.701 581.205 842.174 582.474L841.867 583.795Z" fill="#0B7259"/>
<path d="M911.944 523.386C911.846 523.993 911.498 526.103 910.802 529.208V529.219C907.127 545.686 893.862 589.994 858.173 585.552C858.173 585.552 857.571 581.751 858.775 576.062C860.541 567.698 866.216 555.248 883.477 544.807C909.095 529.307 911.685 524.331 911.944 523.386Z" fill="#098B73"/>
<path d="M910.17 526.659C910.17 526.659 910.101 526.837 909.961 527.184C908.909 529.781 903.901 541.633 895.464 553.934C887.031 566.241 875.162 578.963 860.516 583.414L860.912 584.712C877.062 579.778 889.644 565.359 898.24 552.224C906.832 539.081 911.424 527.175 911.435 527.148L910.17 526.659Z" fill="#0B7259"/>
<path d="M863.089 585.864C861.498 585.864 859.864 585.762 858.173 585.552C858.173 585.552 858.084 584.988 858.043 583.968C859.536 581.266 860.924 578.617 862.206 576.029C875.641 575.053 887.375 564.223 895.947 553.224C895.789 553.46 895.627 553.696 895.465 553.934C887.032 566.241 875.163 578.963 860.516 583.414L860.912 584.712C877.062 579.778 889.645 565.359 898.24 552.224C903.047 544.871 906.601 537.906 908.802 533.192C910.109 530.716 910.802 529.208 910.802 529.208V529.219C907.301 544.906 895.092 585.864 863.089 585.864Z" fill="#0A7E66"/>
<path d="M860.912 584.712L860.516 583.414C875.162 578.963 887.031 566.241 895.464 553.934C895.627 553.696 895.788 553.46 895.947 553.224C901.953 545.518 906.407 537.73 908.802 533.192C906.601 537.906 903.047 544.871 898.24 552.224C889.644 565.359 877.062 579.778 860.912 584.712Z" fill="#0B7259"/>
<path d="M856.257 587.135C855.376 588.668 842.343 583.251 836.472 567.574H836.466C832.941 558.157 832.001 545.037 837.826 527.504C853.132 481.463 846.823 472.782 846.636 472.539C846.944 472.684 860.244 479.291 868.822 495.368L868.857 495.43C878.291 513.163 881.972 542.387 856.257 587.135Z" fill="#02A987"/>
<path d="M846.099 472.954L846.133 472.999C846.896 473.995 860.035 491.564 860.035 524.409C860.035 530.864 859.528 537.911 858.318 545.541C854.985 566.564 854.044 577.139 854.043 582.452C854.045 584.578 854.189 585.862 854.424 586.693C854.544 587.11 854.684 587.422 854.898 587.677C855.104 587.93 855.449 588.111 855.767 588.103C856.15 588.094 856.388 587.925 856.542 587.807C856.695 587.681 856.776 587.572 856.797 587.545L855.717 586.725L855.952 586.904L855.724 586.716L855.717 586.725L855.952 586.904L855.724 586.716L855.678 586.759L855.679 586.761L855.767 586.975V586.746L855.679 586.761L855.767 586.975V586.746V587.033L855.896 586.776L855.767 586.746V587.033L855.896 586.776L855.811 586.947L855.927 586.795L855.896 586.776L855.811 586.947L855.927 586.795L855.902 586.826L855.933 586.799L855.927 586.795L855.902 586.826L855.933 586.799C855.91 586.789 855.727 586.494 855.61 585.802C855.487 585.11 855.399 584.035 855.399 582.452C855.397 577.29 856.327 566.741 859.656 545.754C860.878 538.054 861.391 530.935 861.391 524.409C861.392 490.119 847.225 472.191 847.161 472.112L846.099 472.954Z" fill="#098B73"/>
<path d="M854.627 587.248C852.742 586.784 849.503 585.121 846.124 582.049C842.594 578.839 838.914 574.093 836.472 567.574C838.251 568.08 839.935 568.32 841.523 568.32C847.781 568.32 852.604 564.612 856.322 558.868C854.589 571.307 854.044 578.406 854.043 582.452C854.045 584.578 854.189 585.862 854.424 586.693C854.483 586.902 854.55 587.085 854.627 587.248ZM856.257 587.135L855.883 586.851L855.952 586.904L855.886 586.849L855.903 586.826L855.933 586.799L855.928 586.795L855.926 586.793C855.888 586.754 855.72 586.454 855.61 585.802C855.487 585.11 855.399 584.035 855.399 582.452C855.397 578.184 856.033 570.234 858.135 555.749C869.069 534.883 868.822 495.368 868.822 495.368L868.857 495.43C872.947 503.118 875.956 512.968 875.957 525.307C875.957 538.999 872.252 555.756 862.206 576.029C860.924 578.617 859.536 581.266 858.043 583.968C857.464 585.016 856.869 586.07 856.257 587.135Z" fill="#049C7F"/>
<path d="M855.575 587.385C855.319 587.385 854.999 587.34 854.627 587.248C854.55 587.085 854.483 586.902 854.424 586.693C854.189 585.862 854.045 584.578 854.043 582.452C854.044 578.406 854.589 571.307 856.322 558.868C856.958 557.884 857.562 556.842 858.135 555.749C856.033 570.234 855.397 578.184 855.399 582.452C855.399 584.035 855.487 585.11 855.61 585.802C855.72 586.454 855.888 586.754 855.926 586.793L855.928 586.795L855.933 586.799L855.903 586.826L855.886 586.849L855.952 586.904L855.883 586.851L856.257 587.135C856.162 587.301 855.926 587.385 855.575 587.385ZM855.768 586.751V586.746V586.751Z" fill="#098B73"/>
<path d="M792.952 520.016L792.968 520.176L792.952 520.016Z" fill="#098B73"/>
<path d="M881.515 586.45V623.252C881.515 634.02 872.792 642.748 862.031 642.748H844.731C837.687 642.748 831.513 639.007 828.093 633.397H828.087C826.284 630.441 825.247 626.967 825.247 623.252V586.45H881.515Z" fill="#F78F45"/>
<path d="M883.56 581.676H823.203C822.41 581.676 821.767 582.32 821.767 583.114V585.014C821.767 585.807 822.41 586.45 823.203 586.45H883.56C884.353 586.45 884.996 585.808 884.996 585.014V583.114C884.996 582.32 884.353 581.676 883.56 581.676Z" fill="#F78F45"/>
<path d="M881.515 586.45V623.252C881.515 634.02 872.792 642.748 862.031 642.748H844.731C837.687 642.748 831.513 639.007 828.093 633.397C869.304 646.347 878.255 616.027 876.661 604.003C875.073 591.979 860.223 586.45 860.223 586.45H881.515Z" fill="#F57819"/>
</svg>
