<svg width="14" height="20" viewBox="0 0 14 20" fill="none" xmlns="http://www.w3.org/2000/svg">
<path d="M11.9103 12.3654L7.9951 16.2806L7.9951 1.32136C7.9951 0.766714 7.54649 0.318102 6.99184 0.318102C6.43719 0.318102 5.98858 0.766714 5.98858 1.32136L5.98858 16.2724L2.07341 12.3573C1.87765 12.1615 1.6248 12.0636 1.36378 12.0636C1.10277 12.0636 0.849917 12.1615 0.654159 12.3573C0.262641 12.7488 0.262641 13.3768 0.654159 13.7683L6.27406 19.3882C6.66558 19.7798 7.29364 19.7798 7.68515 19.3882L13.3051 13.7683C13.6966 13.3768 13.6966 12.7488 13.3051 12.3573C12.938 11.9739 12.3018 11.9739 11.9103 12.3654Z" fill="white"/>
</svg>
