<svg width="30" height="30" viewBox="0 0 30 30" fill="none" xmlns="http://www.w3.org/2000/svg">
<path d="M10.655 21.1537L11.8654 19.4597L10.5397 18.1341L8.84559 19.3444C8.53152 19.1691 8.19494 19.0284 7.84149 18.9281L7.4993 16.875H5.62424L5.28204 18.9281C4.92859 19.0284 4.59202 19.1681 4.27795 19.3444L2.58383 18.1341L1.25816 19.4597L2.46851 21.1537C2.2932 21.4678 2.15257 21.8044 2.05319 22.1578L0 22.5V24.375L2.05319 24.7172C2.1535 25.0706 2.2932 25.4072 2.46945 25.7213L1.2591 27.4153L2.58477 28.7409L4.27888 27.5306C4.59296 27.7059 4.92953 27.8466 5.28298 27.9469L5.62518 30H7.50023L7.84243 27.9469C8.19588 27.8466 8.53245 27.7069 8.84653 27.5306L10.5406 28.7409L11.8663 27.4153L10.656 25.7213C10.8313 25.4072 10.9719 25.0706 11.0722 24.7172L13.1254 24.375V22.5L11.0722 22.1578C10.9719 21.8044 10.8313 21.4678 10.655 21.1537ZM6.56177 25.3125C5.5258 25.3125 4.68671 24.4734 4.68671 23.4375C4.68671 22.4016 5.5258 21.5625 6.56177 21.5625C7.59774 21.5625 8.43683 22.4016 8.43683 23.4375C8.43683 24.4734 7.59774 25.3125 6.56177 25.3125ZM30 11.25V9.375L28.0256 9.01594C27.989 8.78062 27.9431 8.54812 27.8868 8.31938L29.5734 7.23281L28.8562 5.50031L26.8949 5.92406C26.7711 5.72156 26.639 5.52469 26.4993 5.33437L27.6421 3.68344L26.3164 2.35781L24.6655 3.50062C24.4751 3.36094 24.2783 3.22875 24.0758 3.105L24.4995 1.14375L22.767 0.426563L21.6804 2.11312C21.4516 2.05781 21.2191 2.01094 20.9838 1.97438L20.6247 0H18.7496L18.3906 1.97438C18.1553 2.01094 17.9227 2.05687 17.694 2.11312L16.6074 0.426563L14.8748 1.14375L15.2986 3.105C15.0961 3.22875 14.8992 3.36094 14.7089 3.50062L13.0579 2.35781L11.7322 3.68344L12.8751 5.33437C12.7354 5.52469 12.6032 5.72156 12.4795 5.92406L10.5181 5.50031L9.80093 7.23281L11.4875 8.31938C11.4322 8.54812 11.3854 8.78062 11.3488 9.01594L9.37435 9.375V11.25L11.3488 11.6091C11.3854 11.8444 11.4313 12.0769 11.4875 12.3056L9.80093 13.3922L10.5181 15.1247L12.4795 14.7009C12.6032 14.9034 12.7354 15.1003 12.8751 15.2906L11.7322 16.9416L13.0579 18.2672L14.7089 17.1244C14.8992 17.2641 15.0961 17.3962 15.2986 17.52L14.8748 19.4813L16.6074 20.1984L17.694 18.5119C17.9227 18.5672 18.1553 18.6141 18.3906 18.6506L18.7496 20.625H20.6247L20.9838 18.6506C21.2191 18.6141 21.4516 18.5681 21.6804 18.5119L22.767 20.1984L24.4995 19.4813L24.0758 17.52C24.2783 17.3962 24.4751 17.2641 24.6655 17.1244L26.3164 18.2672L27.6421 16.9416L26.4993 15.2906C26.639 15.1003 26.7711 14.9034 26.8949 14.7009L28.8562 15.1247L29.5734 13.3922L27.8868 12.3056C27.9421 12.0769 27.989 11.8444 28.0256 11.6091L30 11.25ZM19.6872 14.3906C17.4352 14.3906 15.6089 12.5644 15.6089 10.3125C15.6089 8.06063 17.4352 6.23438 19.6872 6.23438C21.9391 6.23438 23.7654 8.06063 23.7654 10.3125C23.7654 12.5644 21.9391 14.3906 19.6872 14.3906Z" fill="#8C7AE6"/>
</svg>
